<svg xmlns="http://www.w3.org/2000/svg" viewBox="0 0 120 150" width="50vw" height="auto" >
    <path fill="#fff" d="M105.4 13.4H15v128.5h91.1V13.4z" />
    <path d="M17.4 15.8h86.4v123.7H17.4z" />
    <path fill="#fff" d="M21.9 36.2h77.2v76.7H21.9z" />
    <path d="M106.4 12.5H14v130.3h93.1V12.5h-.7zm-.7 129.1H15.3V13.7h90.4v127.8z" />
    <path fill="#fff"
        d="M25.858 120.556c-.013.134-.018.267-.031.395-.07 1.251-.5 2.221-1.986 2.221-2.196 0-2.333-1.337-2.333-3.176v-.978c.054-1.76.198-3.049 2.333-3.049 1.185.011 1.855.604 1.947 1.777.02.163.039.352.026.522h-1.311c-.056-.438-.012-1.268-.662-1.268-1.053 0-.965 1.203-.965 1.744v1.894c0 .564.05 1.487.965 1.487.728 0 .647-1.125.673-1.569h1.344zm1.003-1.538c.057-1.76.2-3.049 2.334-3.049 2.133 0 2.273 1.289 2.327 3.049v.978c0 1.838-.138 3.176-2.327 3.176-2.191 0-2.334-1.337-2.334-3.176v-.978zm1.368 1.623c0 .568.047 1.487.967 1.487.948 0 .957-.937.957-1.604v-1.751c0-.548.032-1.771-.957-1.771-1.047 0-.967 1.2-.967 1.744v1.895zm7.708-4.502h1.341v6.862h-1.399l-1.04-2.445c-.349-.815-.636-1.643-.952-2.726h-.017c.051.574.101 1.259.151 1.962.033.683.06 1.363.06 1.918v1.291h-1.332v-6.862h1.382l1.033 2.503c.341.786.633 1.604.957 2.723h.017c-.047-.62-.096-1.294-.134-1.95a38.427 38.427 0 01-.066-1.933v-1.343zm2.147 0h4.448v1.01h-1.55v5.852h-1.338v-5.852h-1.56zm5.208 6.862v-6.862h3.761v1.01h-2.422v1.728h2.234v1.006h-2.234v2.115h2.422v1.003zm8-6.862h1.333v6.862h-1.394l-1.033-2.445c-.354-.815-.636-1.643-.959-2.726h-.015c.051.574.104 1.259.147 1.962.041.683.064 1.363.064 1.918v1.291h-1.334v-6.862h1.378l1.04 2.503c.346.786.628 1.604.956 2.723h.017a77.791 77.791 0 01-.13-1.95 34.308 34.308 0 01-.07-1.933v-1.343zm2.147 0h4.447v1.01h-1.558v5.852h-1.33v-5.852h-1.559zm8.949 3.899v2.963H61.05v-6.865h2.525c1.157 0 2.023.381 2.023 1.646 0 .752-.191 1.532-1.09 1.653v.029c.797.101 1.033.574 1.033 1.243 0 .28-.036 1.958.29 2.167v.127h-1.477c-.159-.437-.127-1.288-.14-1.734-.006-.429 0-.998-.458-1.128-.365-.108-.743-.101-1.131-.101h-.237zm0-1.004h1.047c.437-.022.779-.29.779-.988 0-.766-.337-.893-.836-.896h-.99v1.884zm3.937 3.967l1.716-6.862h1.792l1.622 6.862H70.03l-.352-1.734h-1.564l-.356 1.734h-1.433zm1.997-2.744h1.145l-.363-1.953c-.063-.32-.089-.626-.133-.949a4.688 4.688 0 00-.05-.463h-.011c-.031.147-.04.302-.048.463-.05.323-.083.629-.14.949l-.4 1.953zm3.386-4.118h4.449v1.01h-1.552v5.852h-1.338v-5.852h-1.559zm5.215 6.862v-6.862h3.755v1.01h-2.415v1.728h2.22v1.006h-2.22v2.115h2.415v1.003zm4.844 0v-6.862h2.777c.327 0 .975.128 1.383.767.307.479.384 1.248.384 2.372 0 1.36 0 2.924-1.088 3.554-.297.15-.658.169-.988.169h-2.468zm1.911-1.003c1.193 0 1.271-.614 1.271-2.592 0-1.627-.176-2.259-.974-2.259h-.88v4.852h.583zm6.226 1.006v-6.869h2.149c.576 0 1.144.027 1.516.505.303.375.355.767.355 1.226 0 .6-.14 1.187-.854 1.441v.019c.743.102 1.033.704 1.033 1.601 0 .274-.016.559-.102.838-.28.871-.797 1.239-1.74 1.239h-2.357zm1.614-1.006c.28 0 .564.022.809-.073.36-.16.4-.613.4-.955 0-.737-.149-1.053-.971-1.053h-.519v2.081h.281zm-.036-3.085c.326 0 .741.017.956-.25.121-.17.14-.401.14-.738 0-.505-.115-.762-.728-.775h-.612v1.764h.244zm5.427-.983c.141.348.255.7.31 1.062h.02c.101-.535.281-.919.447-1.294l.625-1.558h1.465l-1.892 3.945v2.917h-1.33v-2.917l-1.855-3.945h1.454l.756 1.79zm-75.165 17.244v-10.149H36.15v2.38h-8.621v1.448h7.296v2.367h-7.296v1.587h8.955v2.367zm29.222-7.197c-.091-.337-.404-.562-.831-.686-.411-.13-.925-.189-1.495-.189-1.27 0-1.845.218-1.845.59 0 1.514 10.161.57 10.161 4.258 0 2.347-3.414 3.494-8.266 3.494-4.665 0-7.705-1.565-7.826-3.39h5.542c.121.365.467.633.963.795.464.168 1.065.259 1.646.259 1.443 0 2.403-.267 2.403-.744 0-1.539-10.167-.486-10.167-4.355 0-2.161 3.244-3.244 7.661-3.244 4.904 0 7.137 1.444 7.556 3.212h-5.502zm16.551 3.669v3.531h-5.789v-10.152h8.336c5.887 0 7.828.929 7.828 2.901 0 1.171-.907 2.143-2.964 2.478 1.862.395 2.993.646 2.993 2.689 0 1.324-.082 1.776.609 1.776v.308h-5.868c-.147-.229-.288-.881-.288-1.778 0-1.326-.397-1.753-3.09-1.753h-1.767zm0-2.226h2.274c1.799 0 2.751-.267 2.751-.962 0-.712-.973-1.053-2.331-1.053h-2.694v2.015zm16.027 5.754v-10.149h8.437c3.978 0 7.143.547 7.143 2.559 0 1.043-1.18 1.806-2.308 2.205 1.911.28 2.94 1.234 2.94 2.326 0 2.265-3.012 3.059-7.608 3.059h-8.604zm5.784-4.235v1.868h2.525c1.429 0 2.504-.169 2.504-.929 0-.887-1.343-.938-3.191-.938h-1.838zm0-3.534v1.692h2.409c1.151 0 1.992-.308 1.992-.89 0-.789-1.138-.802-2.363-.802h-2.038z" />
    <path
        d="M24.2 43c0-2.2 2-4.1 4.5-4.1s4.4 1.8 4.4 4.1-2 4.1-4.4 4.1c-2.5 0-4.5-1.8-4.5-4.1m8.1 0c0-1.8-1.6-3.3-3.6-3.3S25 41.2 25 43c0 1.9 1.7 3.4 3.7 3.4s3.6-1.5 3.6-3.4m-4.6.3v2.1h-.8v-4.8h1.7c1 0 1.9.2 1.9 1.3 0 .5-.4 1-1 1.1.7.1.8.4.9.9.1.5.1.9.3 1.4h-1c-.1-.3-.1-.6-.2-.9-.1-.4-.1-.8-.3-1-.2-.2-.5-.2-.8-.2h-.7m.9-.8c.8 0 .9-.3.9-.7 0-.4-.2-.6-.8-.6h-1v1.2h.9z" />
    <path fill="#fff"
        d="M91.1 18.9c-1.4 0-2.6.6-2.6 2.3v8.5c0 1.7 1.2 2.3 2.6 2.3 1.4 0 2.6-.6 2.6-2.3v-8.5c0-1.7-1.2-2.3-2.6-2.3m.4 10.4c0 .4 0 .8-.4.8-.3 0-.4-.5-.4-.8v-7.7c0-.3 0-.8.4-.8.3 0 .4.5.4.8v7.7zm-6.6-10.4c-1.4 0-2.6.6-2.6 2.3v8.5c0 1.7 1.2 2.3 2.6 2.3 1.3 0 2.6-.6 2.6-2.3v-8.5c0-1.7-1.2-2.3-2.6-2.3m.4 10.4c0 .4 0 .8-.4.8-.3 0-.4-.5-.4-.8v-7.7c0-.3 0-.8.4-.8.3 0 .4.5.4.8v7.7zm-6.2-5.5h-.8v-4.6h-2.2v12.6h2.2v-6h.8v6h2.2V19.2h-2.2zm-6.4-4.6h-2.6v12.6h2.6c1.3 0 2.6-.6 2.6-2.3v-8c0-1.7-1.2-2.3-2.6-2.3m.4 10c0 .4-.1.8-.4.8h-.4v-9h.4c.3 0 .4.5.4.8v7.3zm-5.5-10h-2.2v12.6h4.1V30h-1.9zm-5.7 0h2.2v12.6h-2.2zm-3.1 4.6H58v-4.6h-2.2v12.6H58v-6h.8v6H61V19.2h-2.2zm-6.7-4.9c-1.4 0-2.6.6-2.6 2.3v8.5c0 1.7 1.2 2.3 2.6 2.3 1.4 0 2.6-.6 2.6-2.3v-2.9h-2.2v2.5c0 .4-.1.8-.4.8-.3 0-.4-.5-.4-.8v-7.7c0-.3 0-.8.4-.8.3 0 .4.5.4.8v2h2.2v-2.4c0-1.7-1.2-2.3-2.6-2.3m-6.8 5.3l-.7-5h-2.3l1.8 6.3v6.3h2.2v-6.3l1.7-6.3h-2zm-4.5-5h-2.2v12.6h4.1V30h-1.9zm-3.2 7.9c0-1.4-.3-2-1.7-2.1 1.3-.1 1.7-1.1 1.7-2.1v-1.1c0-1.9-1.2-2.6-2.6-2.6h-2.6v12.6h2.2v-5.9c.8 0 .8.6.8 1.4v2.9c0 .9.1 1.3.3 1.6h2.2c-.1-.5-.3-1-.3-2.2v-2.5zm-2.2-3.4c0 .6-.2.8-.5.8h-.3V21h.3c.4 0 .5.2.5.8v1.8zm-7.9-4.5l-1.6 12.6h2l.3-3.4h1l.2 3.4h2.3l-1.3-12.6h-2.9zm.8 7.4l.4-5.2h.1l.3 5.2h-.7zm-7.1 5.2h4.1V30h-1.9v-4.3h1.8v-1.8h-1.8V21h1.9v-1.8h-4.1zm76.2-12.6h-2.6v12.6h2.6c1.3 0 2.6-.6 2.6-2.3v-8c0-1.7-1.2-2.3-2.6-2.3m.4 10c0 .4-.1.8-.4.8H97v-9h.4c.3 0 .4.5.4.8v7.3z" />
    <path d="M35.2 78.3c.2 1.5.5 3.1 1 4.6.4 1.3.9 2.6 1.4 3.8l6.9-1.7c-1.2-4.5-4.3-7.6-9.3-6.7" />
    <path
        d="M96.8 74.3l-18.5 4.5c.7 5.1-1.1 9.5-7.3 11-9.8 2.4-13.5-3.9-15.6-11-2.9-9.8-.3-15.8 6.5-17.5 6-1.5 10.7.6 12.9 5.8L93 62.6c-5.4-12.7-17.7-18-35.5-13.6-13.3 3.3-22.3 12.8-22.6 25.1 8.2-1.3 13.5 3 15.7 10.5l.8 2.7-12.1 3c1.7 3 3.9 5.5 6.5 7.5.7-1.2.9-2.6.7-4.6l5.9-1.4c.5 3.5-.4 6.4-2.4 8.7 6.8 3.5 15.4 4.2 25.2 1.8 15.3-3.9 23.8-14.4 21.6-28" />
    <path
        d="M40.963 100.706c-5.714 1.41-9.35-3.213-10.389-8.293l8.71-2.138a32.839 32.839 0 01-1.803-3.56l-8.005 1.958c-1.361-4.648.293-9.091 4.939-10.234.254-.071.508-.112.75-.145-.185-1.392-.299-2.765-.275-4.085-.389.06-.796.134-1.21.216-9.35 2.302-11.657 10.321-9.231 18.633 2.461 8.359 8.117 13.901 17.598 11.581 3.334-.812 6.018-2.266 7.837-4.238a25.702 25.702 0 01-4.123-2.631c-.848 1.43-2.406 2.359-4.798 2.936" />
</svg>