<svg xmlns="http://www.w3.org/2000/svg" width="435" height="299.3">
	<path fill="#ffffff" d="M 105.4 13.4 H 15 v 128.5 h 91.1 V 13.4 z" />
	<path d="M 17.4 15.8 h 86.4 v 123.7 H 17.4 z" />
	<path fill="#ffffff" d="M 21.9 36.2 h 77.2 v 76.7 H 21.9 z" />
	<path d="M 106.4 12.5 H 14 v 130.3 h 93.1 V 12.5 h -0.7 z m -0.7 129.1 H 15.3 V 13.7 h 90.4 v 127.8 z" />
	<path fill="#ffffff"
		d="M25.858 120.556c-.013.134-.018.267-.031.395-.07 1.251-.5 2.221-1.986 2.221-2.196 0-2.333-1.337-2.333-3.176v-.978c.054-1.76.198-3.049 2.333-3.049 1.185.011 1.855.604 1.947 1.777.02.163.039.352.026.522h-1.311c-.056-.438-.012-1.268-.662-1.268-1.053 0-.965 1.203-.965 1.744v1.894c0 .564.05 1.487.965 1.487.728 0 .647-1.125.673-1.569h1.344zM26.861 119.018c.057-1.76.2-3.049 2.334-3.049 2.133 0 2.273 1.289 2.327 3.049v.978c0 1.838-.138 3.176-2.327 3.176-2.191 0-2.334-1.337-2.334-3.176v-.978zm1.368 1.623c0 .568.047 1.487.967 1.487.948 0 .957-.937.957-1.604v-1.751c0-.548.032-1.771-.957-1.771-1.047 0-.967 1.2-.967 1.744v1.895zM35.937 116.139h1.341v6.862h-1.399l-1.04-2.445c-.349-.815-.636-1.643-.952-2.726h-.017c.051.574.101 1.259.151 1.962.033.683.06 1.363.06 1.918v1.291h-1.332v-6.862h1.382l1.033 2.503c.341.786.633 1.604.957 2.723h.017c-.047-.62-.096-1.294-.134-1.95a38.427 38.427 0 01-.066-1.933v-1.343zM38.084 116.139h4.448v1.01h-1.55v5.852h-1.338v-5.852h-1.56zM43.292 123.001v-6.862h3.761v1.01h-2.422v1.728h2.234v1.006h-2.234v2.115h2.422v1.003zM51.292 116.139h1.333v6.862h-1.394l-1.033-2.445c-.354-.815-.636-1.643-.959-2.726h-.015c.051.574.104 1.259.147 1.962.041.683.064 1.363.064 1.918v1.291h-1.334v-6.862h1.378l1.04 2.503c.346.786.628 1.604.956 2.723h.017a77.791 77.791 0 01-.13-1.95 34.308 34.308 0 01-.07-1.933v-1.343zM53.439 116.139h4.447v1.01h-1.558v5.852h-1.33v-5.852h-1.559zM62.388 120.038v2.963H61.05v-6.865h2.525c1.157 0 2.023.381 2.023 1.646 0 .752-.191 1.532-1.09 1.653v.029c.797.101 1.033.574 1.033 1.243 0 .28-.036 1.958.29 2.167v.127h-1.477c-.159-.437-.127-1.288-.14-1.734-.006-.429 0-.998-.458-1.128-.365-.108-.743-.101-1.131-.101h-.237zm0-1.004h1.047c.437-.022.779-.29.779-.988 0-.766-.337-.893-.836-.896h-.99v1.884zM66.325 123.001l1.716-6.862h1.792l1.622 6.862H70.03l-.352-1.734h-1.564l-.356 1.734h-1.433zm1.997-2.744h1.145l-.363-1.953c-.063-.32-.089-.626-.133-.949a4.688 4.688 0 00-.05-.463h-.011c-.031.147-.04.302-.048.463-.05.323-.083.629-.14.949l-.4 1.953zM71.708 116.139h4.449v1.01h-1.552v5.852h-1.338v-5.852h-1.559zM76.923 123.001v-6.862h3.755v1.01h-2.415v1.728h2.22v1.006h-2.22v2.115h2.415v1.003zM81.767 123.001v-6.862h2.777c.327 0 .975.128 1.383.767.307.479.384 1.248.384 2.372 0 1.36 0 2.924-1.088 3.554-.297.15-.658.169-.988.169h-2.468zm1.911-1.003c1.193 0 1.271-.614 1.271-2.592 0-1.627-.176-2.259-.974-2.259h-.88v4.852h.583zM89.904 123.004v-6.869h2.149c.576 0 1.144.027 1.516.505.303.375.355.767.355 1.226 0 .6-.14 1.187-.854 1.441v.019c.743.102 1.033.704 1.033 1.601 0 .274-.016.559-.102.838-.28.871-.797 1.239-1.74 1.239h-2.357zm1.614-1.006c.28 0 .564.022.809-.073.36-.16.4-.613.4-.955 0-.737-.149-1.053-.971-1.053h-.519v2.081h.281zm-.036-3.085c.326 0 .741.017.956-.25.121-.17.14-.401.14-.738 0-.505-.115-.762-.728-.775h-.612v1.764h.244zM96.909 117.93c.141.348.255.7.31 1.062h.02c.101-.535.281-.919.447-1.294l.625-1.558h1.465l-1.892 3.945v2.917h-1.33v-2.917l-1.855-3.945h1.454l.756 1.79zM21.744 135.174v-10.149H36.15v2.38h-8.621v1.448h7.296v2.367h-7.296v1.587h8.955v2.367zM50.966 127.977c-.091-.337-.404-.562-.831-.686-.411-.13-.925-.189-1.495-.189-1.27 0-1.845.218-1.845.59 0 1.514 10.161.57 10.161 4.258 0 2.347-3.414 3.494-8.266 3.494-4.665 0-7.705-1.565-7.826-3.39h5.542c.121.365.467.633.963.795.464.168 1.065.259 1.646.259 1.443 0 2.403-.267 2.403-.744 0-1.539-10.167-.486-10.167-4.355 0-2.161 3.244-3.244 7.661-3.244 4.904 0 7.137 1.444 7.556 3.212h-5.502zM67.517 131.646v3.531h-5.789v-10.152h8.336c5.887 0 7.828.929 7.828 2.901 0 1.171-.907 2.143-2.964 2.478 1.862.395 2.993.646 2.993 2.689 0 1.324-.082 1.776.609 1.776v.308h-5.868c-.147-.229-.288-.881-.288-1.778 0-1.326-.397-1.753-3.09-1.753h-1.767zm0-2.226h2.274c1.799 0 2.751-.267 2.751-.962 0-.712-.973-1.053-2.331-1.053h-2.694v2.015zM83.544 135.174v-10.149h8.437c3.978 0 7.143.547 7.143 2.559 0 1.043-1.18 1.806-2.308 2.205 1.911.28 2.94 1.234 2.94 2.326 0 2.265-3.012 3.059-7.608 3.059h-8.604zm5.784-4.235v1.868h2.525c1.429 0 2.504-.169 2.504-.929 0-.887-1.343-.938-3.191-.938h-1.838zm0-3.534v1.692h2.409c1.151 0 1.992-.308 1.992-.89 0-.789-1.138-.802-2.363-.802h-2.038z" />
	<path
		d="M 24.2 43 c 0 -2.2 2 -4.1 4.5 -4.1 c 2.5 0 4.4 1.8 4.4 4.1 c 0 2.3 -2 4.1 -4.4 4.1 c -2.5 0 -4.5 -1.8 -4.5 -4.1 m 8.1 0 c 0 -1.8 -1.6 -3.3 -3.6 -3.3 c -2 0 -3.7 1.5 -3.7 3.3 c 0 1.9 1.7 3.4 3.7 3.4 c 2 0 3.6 -1.5 3.6 -3.4 m -4.6 0.3 v 2.1 h -0.8 v -4.8 h 1.7 c 1 0 1.9 0.2 1.9 1.3 c 0 0.5 -0.4 1 -1 1.1 v 0 c 0.7 0.1 0.8 0.4 0.9 0.9 c 0.1 0.5 0.1 0.9 0.3 1.4 h -1 c -0.1 -0.3 -0.1 -0.6 -0.2 -0.9 c -0.1 -0.4 -0.1 -0.8 -0.3 -1 c -0.2 -0.2 -0.5 -0.2 -0.8 -0.2 h -0.7 m 0.9 -0.8 c 0.8 0 0.9 -0.3 0.9 -0.7 c 0 -0.4 -0.2 -0.6 -0.8 -0.6 h -1 v 1.2 h 0.9 z" />
	<path fill="#ffffff"
		d="M 91.1 18.9 c -1.4 0 -2.6 0.6 -2.6 2.3 v 8.5 c 0 1.7 1.2 2.3 2.6 2.3 c 1.4 0 2.6 -0.6 2.6 -2.3 v -8.5 c 0 -1.7 -1.2 -2.3 -2.6 -2.3 m 0.4 10.4 c 0 0.4 0 0.8 -0.4 0.8 c -0.3 0 -0.4 -0.5 -0.4 -0.8 v -7.7 c 0 -0.3 0 -0.8 0.4 -0.8 c 0.3 0 0.4 0.5 0.4 0.8 v 7.7 z M 84.9 18.9 c -1.4 0 -2.6 0.6 -2.6 2.3 v 8.5 c 0 1.7 1.2 2.3 2.6 2.3 c 1.3 0 2.6 -0.6 2.6 -2.3 v -8.5 c 0 -1.7 -1.2 -2.3 -2.6 -2.3 m 0.4 10.4 c 0 0.4 0 0.8 -0.4 0.8 c -0.3 0 -0.4 -0.5 -0.4 -0.8 v -7.7 c 0 -0.3 0 -0.8 0.4 -0.8 c 0.3 0 0.4 0.5 0.4 0.8 v 7.7 z M 79.1 23.8 h -0.8 v -4.6 h -2.2 v 12.6 h 2.2 v -6 h 0.8 v 6 h 2.2 V 19.2 h -2.2 z M 72.7 19.2 h -2.6 v 12.6 h 2.6 c 1.3 0 2.6 -0.6 2.6 -2.3 v -8 c 0 -1.7 -1.2 -2.3 -2.6 -2.3 m 0.4 10 c 0 0.4 -0.1 0.8 -0.4 0.8 h -0.4 v -9 h 0.4 c 0.3 0 0.4 0.5 0.4 0.8 v 7.3 z M 67.6 19.2 h -2.2 v 12.6 h 4.1 v -1.8 h -1.9 z M 61.9 19.2 h 2.2 v 12.6 h -2.2 z M 58.8 23.8 h -0.8 v -4.6 h -2.2 v 12.6 h 2.2 v -6 h 0.8 v 6 h 2.2 V 19.2 H 58.8 z M 52.1 18.9 c -1.4 0 -2.6 0.6 -2.6 2.3 v 8.5 c 0 1.7 1.2 2.3 2.6 2.3 c 1.4 0 2.6 -0.6 2.6 -2.3 v -2.9 h -2.2 v 2.5 c 0 0.4 -0.1 0.8 -0.4 0.8 c -0.3 0 -0.4 -0.5 -0.4 -0.8 v -7.7 c 0 -0.3 0 -0.8 0.4 -0.8 c 0.3 0 0.4 0.5 0.4 0.8 v 2 h 2.2 v -2.4 c 0 -1.7 -1.2 -2.3 -2.6 -2.3 M 45.3 24.2 h 0 l -0.7 -5 h -2.3 l 1.8 6.3 v 6.3 h 2.2 v -6.3 l 1.7 -6.3 h -2 z M 40.8 19.2 H 38.6 v 12.6 h 4.1 v -1.8 h -1.9 z M 37.6 27.1 c 0 -1.4 -0.3 -2 -1.7 -2.1 v 0 c 1.3 -0.1 1.7 -1.1 1.7 -2.1 v -1.1 c 0 -1.9 -1.2 -2.6 -2.6 -2.6 h -2.6 v 12.6 h 2.2 v -5.9 c 0.8 0 0.8 0.6 0.8 1.4 v 2.9 c 0 0.9 0.1 1.3 0.3 1.6 h 2.2 c -0.1 -0.5 -0.3 -1 -0.3 -2.2 v -2.5 z m -2.2 -3.4 c 0 0.6 -0.2 0.8 -0.5 0.8 h -0.3 v -3.5 h 0.3 c 0.4 0 0.5 0.2 0.5 0.8 v 1.8 z M 27.5 19.2 l -1.6 12.6 h 2 l 0.3 -3.4 h 1 l 0.2 3.4 h 2.3 l -1.3 -12.6 H 27.5 z m 0.8 7.4 l 0.4 -5.2 h 0.1 l 0.3 5.2 h -0.7 z M 21.2 31.8 h 4.1 v -1.8 h -1.9 v -4.3 h 1.8 v -1.8 h -1.8 v -2.9 h 1.9 v -1.8 h -4.1 z M 97.4 19.2 h -2.6 v 12.6 h 2.6 c 1.3 0 2.6 -0.6 2.6 -2.3 v -8 c 0 -1.7 -1.2 -2.3 -2.6 -2.3 m 0.4 10 c 0 0.4 -0.1 0.8 -0.4 0.8 h -0.4 v -9 h 0.4 c 0.3 0 0.4 0.5 0.4 0.8 v 7.3 z" />
	<path
		d="M 35.2 78.3 c 0.2 1.5 0.5 3.1 1 4.6 c 0.4 1.3 0.9 2.6 1.4 3.8 l 6.9 -1.7 c -1.2 -4.5 -4.3 -7.6 -9.3 -6.7" />
	<path
		d="M 96.8 74.3 l -18.5 4.5 c 0.7 5.1 -1.1 9.5 -7.3 11 c -9.8 2.4 -13.5 -3.9 -15.6 -11 c -2.9 -9.8 -0.3 -15.8 6.5 -17.5 c 6 -1.5 10.7 0.6 12.9 5.8 l 18.2 -4.5 c -5.4 -12.7 -17.7 -18 -35.5 -13.6 c -13.3 3.3 -22.3 12.8 -22.6 25.1 c 8.2 -1.3 13.5 3 15.7 10.5 l 0.8 2.7 l -12.1 3 c 1.7 3 3.9 5.5 6.5 7.5 c 0.7 -1.2 0.9 -2.6 0.7 -4.6 l 5.9 -1.4 c 0.5 3.5 -0.4 6.4 -2.4 8.7 c 6.8 3.5 15.4 4.2 25.2 1.8 C 90.5 98.4 99 87.9 96.8 74.3" />
	<path
		d="M40.963 100.706c-5.714 1.41-9.35-3.213-10.389-8.293l8.71-2.138a32.839 32.839 0 01-1.803-3.56l-8.005 1.958c-1.361-4.648.293-9.091 4.939-10.234.254-.071.508-.112.75-.145-.185-1.392-.299-2.765-.275-4.085-.389.06-.796.134-1.21.216-9.35 2.302-11.657 10.321-9.231 18.633 2.461 8.359 8.117 13.901 17.598 11.581 3.334-.812 6.018-2.266 7.837-4.238a25.702 25.702 0 01-4.123-2.631c-.848 1.43-2.406 2.359-4.798 2.936" />
	<g>
		<path fill="#ffffff" d="M 210.1 13.4 h -90.4 v 128.5 h 91.1 V 13.4 z" />
		<path d="M 122.1 15.8 h 86.4 v 123.7 h -86.4 z" />
		<path fill="#ffffff" d="M 126.6 36.2 h 77.2 v 76.8 h -77.2 z" />
		<path d="M 211.1 12.5 h -92.4 v 130.4 h 93.1 V 12.5 h -0.7 z m -0.7 129.1 h -90.4 V 13.7 h 90.4 v 127.8 z" />
		<path fill="#ffffff"
			d="M130.544 120.555c-.012.131-.019.268-.031.396-.067 1.253-.499 2.217-1.989 2.217-2.196 0-2.33-1.338-2.33-3.172v-.979c.055-1.758.201-3.048 2.33-3.048 1.186.012 1.855.602 1.947 1.776.024.165.042.353.03.523h-1.314c-.055-.441-.012-1.271-.663-1.271-1.053 0-.961 1.208-.961 1.746v1.892c0 .571.048 1.49.961 1.49.73 0 .651-1.125.675-1.57h1.345zM131.548 119.016c.054-1.758.2-3.048 2.33-3.048 2.136 0 2.275 1.29 2.33 3.048v.979c0 1.834-.14 3.176-2.33 3.176s-2.33-1.341-2.33-3.176v-.979zm1.369 1.621c0 .568.042 1.487.961 1.487.949 0 .961-.937.961-1.6v-1.752c0-.548.03-1.773-.961-1.773-1.046 0-.961 1.208-.961 1.743v1.895zM140.625 116.135h1.338V123h-1.393l-1.046-2.446c-.347-.815-.633-1.643-.949-2.729h-.019c.049.575.104 1.263.146 1.968.037.682.067 1.362.067 1.913V123h-1.333v-6.865h1.381l1.035 2.503c.34.791.632 1.606.955 2.726h.019c-.049-.621-.097-1.296-.134-1.953s-.067-1.314-.067-1.929v-1.347zM142.772 116.135h4.448v1.01h-1.552V123h-1.338v-5.855h-1.558zM147.98 123v-6.865h3.76v1.01h-2.422v1.728h2.233v1.01h-2.233v2.114h2.422V123zM155.98 116.135h1.333V123h-1.393l-1.034-2.446c-.353-.815-.639-1.643-.955-2.729h-.019c.049.575.104 1.263.146 1.968.042.682.067 1.362.067 1.913V123h-1.338v-6.865h1.381l1.041 2.503c.347.791.626 1.606.955 2.726h.019a82.754 82.754 0 01-.134-1.953 34.959 34.959 0 01-.067-1.929v-1.347zM158.128 116.135h4.447v1.01h-1.557V123h-1.332v-5.855h-1.558zM167.077 120.038V123h-1.338v-6.868h2.525c1.156 0 2.026.383 2.026 1.648 0 .751-.195 1.533-1.089 1.655v.024c.791.1 1.028.578 1.028 1.247 0 .277-.037 1.958.285 2.166V123h-1.472c-.158-.438-.127-1.29-.14-1.733-.006-.426 0-.998-.456-1.132-.365-.104-.749-.098-1.132-.098h-.237zm0-1.004h1.047c.438-.024.778-.292.778-.992 0-.766-.334-.894-.833-.9h-.992v1.892zM171.019 123l1.709-6.862h1.794l1.619 6.862h-1.423l-.353-1.737h-1.563l-.353 1.737h-1.43zm1.989-2.743h1.144l-.359-1.953c-.066-.322-.091-.626-.134-.949a5.173 5.173 0 00-.048-.462h-.012c-.03.146-.037.298-.049.462-.049.322-.079.626-.14.949l-.402 1.953zM176.397 116.135h4.448v1.01h-1.552V123h-1.338v-5.855h-1.558zM181.611 123v-6.865h3.753v1.01h-2.415v1.728h2.221v1.01h-2.221v2.114h2.415V123zM186.453 123v-6.865h2.781c.322 0 .973.131 1.381.77.304.48.383 1.247.383 2.372 0 1.357 0 2.927-1.089 3.553-.292.152-.657.17-.992.17h-2.464zm1.911-1.006c1.192 0 1.271-.605 1.271-2.589 0-1.63-.177-2.263-.973-2.263h-.876v4.852h.578zM194.593 123v-6.868h2.148c.578 0 1.144.03 1.515.505.304.377.359.767.359 1.229 0 .596-.14 1.187-.857 1.442v.018c.742.104 1.034.706 1.034 1.6 0 .28-.018.56-.097.837-.286.873-.803 1.238-1.746 1.238h-2.356zm1.613-1.009c.28 0 .566.027.81-.067.359-.161.401-.614.401-.955 0-.736-.151-1.059-.973-1.059h-.517v2.081h.279zm-.037-3.082c.329 0 .742.018.956-.247.122-.176.14-.404.14-.742 0-.505-.11-.76-.725-.772h-.614v1.761h.243zM201.596 117.933c.14.341.256.694.31 1.056h.024c.098-.536.28-.916.438-1.293l.632-1.56h1.46l-1.886 3.945V123h-1.332v-2.92l-1.855-3.945h1.454l.755 1.798zM126.432 135.174v-10.148h14.406v2.376h-8.621v1.451h7.295v2.361h-7.295v1.594h8.955v2.366zM155.658 127.977c-.091-.341-.414-.566-.833-.688-.414-.128-.925-.188-1.497-.188-1.271 0-1.844.219-1.844.587 0 1.512 10.16.575 10.16 4.256 0 2.354-3.413 3.498-8.268 3.498-4.66 0-7.702-1.558-7.824-3.389h5.542c.122.365.468.633.961.796.462.171 1.071.256 1.643.256 1.448 0 2.409-.268 2.409-.746 0-1.536-10.166-.483-10.166-4.353 0-2.16 3.243-3.243 7.659-3.243 4.904 0 7.137 1.442 7.557 3.212h-5.499zM172.206 131.643v3.532h-5.792v-10.148h8.341c5.883 0 7.824.925 7.824 2.896 0 1.174-.906 2.147-2.963 2.482 1.861.396 2.993.639 2.993 2.689 0 1.32-.079 1.773.608 1.773v.308h-5.864c-.146-.225-.292-.876-.292-1.777 0-1.326-.396-1.755-3.09-1.755h-1.765zm0-2.224h2.275c1.794 0 2.75-.265 2.75-.967 0-.709-.974-1.053-2.331-1.053h-2.695v2.02zM188.23 135.174v-10.148h8.438c3.979 0 7.143.544 7.143 2.555 0 1.046-1.181 1.807-2.306 2.208 1.91.28 2.938 1.232 2.938 2.324 0 2.27-3.011 3.061-7.604 3.061h-8.609zm5.786-4.234v1.868h2.524c1.43 0 2.507-.17 2.507-.931 0-.888-1.345-.937-3.194-.937h-1.837zm0-3.538v1.692h2.409c1.15 0 1.99-.302 1.99-.889 0-.791-1.138-.803-2.354-.803h-2.045z" />
		<path
			d="M 128.9 43 c 0 -2.2 2 -4.1 4.5 -4.1 c 2.5 0 4.4 1.8 4.4 4.1 c 0 2.3 -2 4.1 -4.4 4.1 c -2.5 0 -4.5 -1.8 -4.5 -4.1 m 8.1 0 c 0 -1.8 -1.6 -3.3 -3.6 -3.3 c -2 0 -3.7 1.5 -3.7 3.3 c 0 1.9 1.6 3.4 3.7 3.4 c 2 0 3.6 -1.5 3.6 -3.4 m -4.6 0.3 v 2.1 h -0.8 v -4.8 h 1.7 c 1 0 1.9 0.2 1.9 1.3 c 0 0.5 -0.4 1 -1 1.1 v 0 c 0.7 0.1 0.8 0.4 0.9 0.9 c 0.1 0.5 0.1 0.9 0.3 1.4 h -1 c -0.1 -0.3 -0.1 -0.6 -0.2 -0.9 c 0 -0.4 0 -0.8 -0.3 -1 c -0.2 -0.2 -0.5 -0.2 -0.8 -0.2 h -0.7 m 0.9 -0.8 c 0.8 0 0.9 -0.3 0.9 -0.7 c 0 -0.4 -0.2 -0.6 -0.8 -0.6 h -1 v 1.2 h 0.9 z" />
		<path fill="#ffffff"
			d="M200.428 30.057v-2.689h3.93v-2.489h-3.93v-2.302h4.058v-2.51h-7.204v12.472h7.228v-2.482zM192.318 27.045h-.048l-2.434-6.978h-3.231v12.475h2.981l-.285-6.945.036-.033 2.44 6.978h3.218V20.067h-2.981zM180.498 19.848c-2.75 0-4.283 1.326-4.283 3.711v5.086c0 2.811 1.101 4.271 4.283 4.271 3.188 0 4.234-1.46 4.234-4.271V23.56c-.001-2.386-1.491-3.712-4.234-3.712m1.083 9.041c0 .721-.073 1.776-1.083 1.776-1.016 0-1.149-1.056-1.149-1.776v-5.116c0-.773.133-1.683 1.131-1.683 1.028 0 1.102.91 1.102 1.683v5.116zM170.119 24.152h-.043l-1.576-4.085h-3.175l3.163 7.234v5.238h3.139v-5.238l3.237-7.234h-3.139zM164.181 28.013c-.048-.864-.675-1.43-1.545-1.603v-.052c1.32-.542 1.661-1.506 1.661-2.835 0-2.47-1.295-3.456-3.857-3.456h-4.6v12.477h3.146v-4.927h1.047c.73.064.967.554 1.07 1.326.079.767.006 1.795.067 2.893.012.24.085.478.176.708h3.432v-.164a.871.871 0 01-.304-.417c-.178-.805-.202-2.953-.293-3.95m-4.124-2.632h-1.071v-3.057c1.54-.024 2.196.024 2.196 1.502 0 .782-.213 1.555-1.125 1.555M149.756 27.368h3.937v-2.489h-3.937v-2.302h4.071V20.07h-7.209v12.472h7.409v-2.485h-4.271zM140.302 28.821h-.036l-1.606-8.754h-3.145l2.907 12.477h3.7l2.938-12.477h-3.145zM129.966 27.368h3.967v-2.489h-3.967v-2.302h4.095V20.07h-7.252v12.472h7.464v-2.485h-4.307z" />
		<path
			d="M 135.4 51 l 47.7 -12.1 l 4.4 15.4 l -28.1 7.1 l 1.8 6.3 l 28.1 -7.1 l 4.4 15.4 l -28.1 7.1 l 1.9 6.7 l 28.1 -7.1 l 4.4 15.4 l -47.7 12.1 z" />
	</g>
	<g>
		<path fill="#ffffff" d="M 419.5 13.4 h -90.4 v 128.5 h 91.1 V 13.4 z" />
		<path d="M 331.4 15.8 h 86.4 v 123.7 h -86.4 z" />
		<path fill="#ffffff" d="M 336 36.2 h 77.2 v 76.8 h -77.2 z" />
		<path d="M 420.5 12.5 h -92.4 v 130.4 h 93.1 V 12.5 h -0.7 z m -0.7 129.1 H 329.4 V 13.7 h 90.4 v 127.8 z" />
		<path fill="#ffffff"
			d="M339.919 120.555c-.013.134-.021.268-.032.398-.068 1.25-.501 2.214-1.986 2.214-2.196 0-2.333-1.338-2.333-3.172v-.979c.054-1.758.199-3.048 2.333-3.048 1.187.012 1.855.602 1.947 1.773.021.167.039.356.026.523h-1.311c-.056-.438-.012-1.266-.663-1.266-1.052 0-.966 1.205-.966 1.746v1.892c0 .572.05 1.487.966 1.487.727 0 .648-1.128.673-1.57h1.346zM340.921 119.016c.057-1.758.199-3.048 2.333-3.048s2.274 1.29 2.331 3.048v.979c0 1.834-.143 3.172-2.331 3.172-2.189 0-2.333-1.338-2.333-3.172v-.979zm1.368 1.621c0 .572.047 1.487.965 1.487.949 0 .958-.937.958-1.6v-1.752c0-.548.032-1.773-.958-1.773-1.046 0-.965 1.205-.965 1.746v1.892zM349.998 116.135h1.34V123h-1.396l-1.046-2.443a24.1 24.1 0 01-.948-2.731h-.018a73.6 73.6 0 01.146 1.968c.037.682.064 1.362.064 1.913V123h-1.332v-6.865h1.383l1.034 2.503c.34.791.632 1.606.956 2.722h.016a92.826 92.826 0 01-.134-1.95 36.993 36.993 0 01-.065-1.932v-1.343zM352.146 116.135h4.447v1.01h-1.55V123h-1.34v-5.855h-1.557zM357.353 123v-6.865h3.759v1.01h-2.421v1.731h2.235v1.007h-2.235v2.111h2.421V123zM365.354 116.135h1.332V123h-1.395l-1.034-2.443c-.352-.818-.639-1.648-.954-2.731h-.019c.051.575.104 1.263.146 1.968.042.682.066 1.362.066 1.913V123h-1.336v-6.865h1.379l1.04 2.503c.346.791.628 1.606.957 2.722h.015c-.046-.617-.097-1.293-.13-1.95a34.031 34.031 0 01-.068-1.932v-1.343zM367.5 116.135h4.448v1.01h-1.557V123h-1.333v-5.855H367.5zM376.45 120.041V123h-1.34v-6.865h2.526c1.155 0 2.024.38 2.024 1.643 0 .754-.194 1.536-1.086 1.658v.024c.791.1 1.026.581 1.026 1.247 0 .277-.037 1.958.287 2.166V123h-1.474c-.158-.438-.128-1.287-.141-1.737-.006-.423 0-.995-.457-1.128-.364-.104-.748-.095-1.131-.095h-.234zm0-1.007h1.046c.44-.024.778-.289.778-.992 0-.766-.335-.894-.834-.897h-.99v1.889zM380.391 123l1.711-6.865h1.794l1.619 6.865h-1.424l-.352-1.737h-1.563L381.82 123h-1.429zm1.991-2.743h1.142l-.356-1.953c-.065-.322-.09-.626-.135-.949a4.705 4.705 0 00-.05-.462h-.013c-.029.143-.035.298-.046.462-.051.322-.081.626-.141.949l-.401 1.953zM385.771 116.135h4.448v1.01h-1.552V123h-1.339v-5.855h-1.557zM390.985 123v-6.865h3.754v1.01h-2.415v1.731h2.221v1.007h-2.221v2.111h2.415V123zM395.828 123v-6.865h2.777c.325 0 .977.131 1.384.77.302.48.383 1.244.383 2.372 0 1.36 0 2.927-1.088 3.55-.296.155-.658.173-.992.173h-2.464zm1.91-1.006c1.192 0 1.271-.608 1.271-2.589 0-1.627-.176-2.26-.973-2.26h-.88v4.849h.582zM403.965 123v-6.865h2.15c.575 0 1.145.027 1.515.502.305.374.356.767.356 1.229 0 .6-.141 1.187-.854 1.442v.018c.742.104 1.034.706 1.034 1.6 0 .283-.019.56-.098.837-.285.875-.803 1.238-1.746 1.238h-2.357zm1.615-1.006c.279 0 .563.024.81-.07.358-.161.398-.611.398-.955 0-.736-.149-1.056-.97-1.056h-.518v2.081h.28zm-.036-3.085c.325 0 .739.018.955-.247.121-.173.14-.404.14-.742 0-.505-.112-.76-.727-.775h-.611v1.764h.243zM410.971 117.933c.14.344.256.694.311 1.056h.021c.1-.536.278-.916.44-1.293l.629-1.56h1.464l-1.889 3.945V123h-1.33v-2.92l-1.854-3.945h1.453l.755 1.798zM335.804 135.174v-10.148h14.405v2.376h-8.618v1.448h7.294v2.367h-7.294v1.591h8.955v2.366zM365.03 127.977c-.089-.341-.413-.563-.834-.688-.411-.128-.926-.188-1.495-.188-1.271 0-1.844.219-1.844.587 0 1.515 10.159.575 10.159 4.259 0 2.351-3.412 3.495-8.266 3.495-4.663 0-7.703-1.561-7.825-3.392h5.543c.121.365.467.632.962.799.461.174 1.068.259 1.641.259 1.448 0 2.408-.271 2.408-.749 0-1.536-10.165-.483-10.165-4.353 0-2.16 3.243-3.243 7.66-3.243 4.903 0 7.136 1.442 7.558 3.212h-5.502zM381.578 131.643v3.532h-5.79v-10.148h8.338c5.886 0 7.826.925 7.826 2.896 0 1.171-.905 2.147-2.962 2.482 1.861.396 2.993.642 2.993 2.686 0 1.323-.083 1.776.608 1.776v.308h-5.868c-.146-.225-.289-.876-.289-1.774 0-1.329-.396-1.758-3.093-1.758h-1.763zm0-2.224h2.274c1.798 0 2.75-.265 2.75-.964 0-.712-.972-1.053-2.331-1.053h-2.693v2.017zM397.604 135.174v-10.148h8.438c3.979 0 7.142.544 7.142 2.555 0 1.046-1.18 1.807-2.309 2.205 1.914.283 2.941 1.235 2.941 2.327 0 2.27-3.011 3.061-7.607 3.061h-8.605zm5.786-4.237v1.871h2.525c1.429 0 2.503-.174 2.503-.931 0-.885-1.342-.939-3.19-.939h-1.838zm0-3.535v1.692h2.41c1.149 0 1.989-.302 1.989-.889 0-.791-1.139-.803-2.358-.803h-2.041z" />
		<path
			d="M 338.3 43 c 0 -2.2 2 -4.1 4.5 -4.1 c 2.5 0 4.4 1.8 4.4 4.1 c 0 2.3 -2 4.1 -4.4 4.1 c -2.5 0 -4.5 -1.8 -4.5 -4.1 m 8.1 0 c 0 -1.8 -1.6 -3.3 -3.6 -3.3 c -2 0 -3.7 1.5 -3.7 3.3 c 0 1.9 1.6 3.4 3.7 3.4 c 2 0 3.6 -1.5 3.6 -3.4 m -4.6 0.3 v 2.1 h -0.8 v -4.8 h 1.7 c 1 0 1.9 0.2 1.9 1.3 c 0 0.5 -0.4 1 -1.1 1.1 v 0 c 0.7 0.1 0.8 0.4 0.9 0.9 c 0.1 0.5 0.1 0.9 0.3 1.4 h -1 c -0.1 -0.3 -0.1 -0.6 -0.2 -0.9 c -0.1 -0.4 -0.1 -0.8 -0.3 -1 c -0.2 -0.2 -0.5 -0.2 -0.8 -0.2 h -0.7 m 0.9 -0.8 c 0.8 0 0.9 -0.3 0.9 -0.7 c 0 -0.4 -0.2 -0.5 -0.8 -0.5 h -1 v 1.2 h 0.9 z M 339.8 53.6 l 60 -14.9 l 4.6 16 l -19.3 4.8 l 12.9 44.8 l -21.5 5.3 l -12.9 -44.8 l -19.3 4.8 z" />
		<path fill="#ffffff"
			d="M 395.8 19.6 h 5.5 l 6.3 6.8 l -0.2 -2.8 v -3.9 h 5.6 v 12.4 h -5.5 l -6.3 -6.7 l 0.2 2.8 v 3.9 h -5.6 z M 376.1 19.6 h 14.5 v 2.9 h -8.7 v 1.8 h 7.3 v 2.9 h -7.3 v 1.9 h 9 v 2.9 h -14.8 z M 355.8 19.6 h 14.5 v 2.9 h -8.7 v 1.8 h 7.3 v 2.9 h -7.3 v 1.9 h 9 v 2.9 h -14.8 z M 334.6 19.6 h 16.3 v 3.3 h -5.2 v 9.1 h -5.8 v -9.1 h -5.2 z" />
	</g>
	<g>
		<path fill="#ffffff" d="M 365.5 155.8 h -90.1 V 283.9 h 90.8 V 155.8 z" />
		<path d="M 366.5 154.9 h -92.1 v 129.9 h 92.7 V 154.9 h -0.7 z m -0.7 128.7 h -90.1 V 156.2 h 90.1 v 127.4 z" />
		<path fill="#ffffff" d="M 276.7 157.4 h 88 v 125 h -88 z" />
		<path d="M 277 157.7 h 87.2 v 124.4 h -87.2 z" />
		<path fill="#ffffff"
			d="M281.631 178.092h78.258v78.99h-78.258zM285.793 263.804l-.028.394c-.068 1.226-.503 2.165-2.009 2.165-2.218 0-2.357-1.305-2.357-3.104v-.96c.057-1.715.202-2.986 2.357-2.986 1.203.015 1.875.59 1.97 1.739.019.168.039.345.03.512h-1.326c-.06-.429-.01-1.241-.674-1.241-1.059 0-.973 1.175-.973 1.704v1.867c0 .551.048 1.46.973 1.46.742 0 .65-1.112.683-1.549h1.354zM286.807 262.298c.057-1.715.203-2.986 2.355-2.986 2.155 0 2.299 1.271 2.355 2.986v.96c0 1.8-.145 3.104-2.355 3.104-2.209 0-2.355-1.305-2.355-3.104v-.96zm1.386 1.595c0 .551.046 1.46.969 1.46.963 0 .973-.928.973-1.575v-1.716c0-.544.031-1.74-.973-1.74-1.057 0-.969 1.175-.969 1.704v1.867zM295.977 259.47h1.347v6.735h-1.407l-1.048-2.401c-.354-.802-.643-1.611-.958-2.67h-.023c.049.554.107 1.231.146 1.919.037.673.064 1.348.064 1.887v1.266h-1.346v-6.735h1.4l1.042 2.458c.349.779.639 1.57.969 2.667h.016c-.047-.607-.096-1.262-.137-1.903a33.041 33.041 0 01-.065-1.904v-1.319zM298.144 259.47h4.488v.986h-1.567v5.75h-1.345v-5.75h-1.576zM303.406 266.206v-6.736h3.79v.986h-2.437v1.704h2.247v.982h-2.247v2.074h2.437v.99zM311.479 259.47h1.345v6.735h-1.401l-1.053-2.401a21.811 21.811 0 01-.96-2.67h-.024c.057.554.116 1.231.153 1.919.038.673.064 1.348.064 1.887v1.266h-1.349v-6.735h1.393l1.047 2.458c.352.779.639 1.57.969 2.667h.016a90.783 90.783 0 01-.134-1.903 30.541 30.541 0 01-.065-1.904v-1.319zM313.645 259.47h4.495v.986h-1.568v5.75h-1.351v-5.75h-1.576zM322.686 263.306v2.899h-1.353v-6.735h2.557c1.156 0 2.045.374 2.045 1.612 0 .742-.199 1.518-1.106 1.631v.015c.794.104 1.034.578 1.034 1.223 0 .277-.038 1.929.289 2.133v.122h-1.475c-.166-.43-.137-1.254-.148-1.704-.006-.414 0-.982-.464-1.107-.363-.101-.753-.088-1.149-.088h-.23zm0-.986h1.059c.437-.027.784-.294.784-.967 0-.758-.336-.885-.847-.897h-.996v1.864zM326.669 266.206l1.722-6.735h1.819l1.633 6.735H330.4l-.357-1.704h-1.575l-.356 1.704h-1.443zm2.009-2.699h1.156l-.371-1.908c-.063-.313-.09-.62-.128-.934l-.051-.453h-.021l-.043.453c-.044.313-.075.621-.135.934l-.407 1.908zM332.097 259.47h4.488v.986h-1.566v5.75h-1.346v-5.75h-1.576zM337.359 266.206v-6.736h3.792v.986h-2.44v1.704h2.242v.982h-2.242v2.074h2.44v.99zM342.252 266.206v-6.735h2.802c.332 0 .988.134 1.396.767.311.466.394 1.211.394 2.32 0 1.336 0 2.866-1.099 3.468-.302.159-.663.181-1.004.181h-2.489zm1.935-.99c1.199 0 1.277-.593 1.277-2.54 0-1.594-.173-2.221-.985-2.221h-.882v4.761h.59zM350.468 266.206v-6.735h2.176c.568 0 1.149.037 1.532.496.302.371.354.748.354 1.211 0 .581-.141 1.164-.871 1.411v.018c.761.102 1.053.688 1.053 1.564 0 .273-.018.554-.1.824-.283.849-.813 1.211-1.768 1.211h-2.376zm1.64-.99c.279 0 .562.024.802-.07.372-.151.411-.593.411-.937 0-.721-.155-1.031-.982-1.031h-.523v2.038h.292zm-.043-3.023c.324 0 .751.019.961-.231.127-.173.14-.411.14-.729 0-.505-.112-.758-.724-.776h-.627v1.737h.25zM357.541 261.238c.146.334.262.675.319 1.034h.012c.101-.526.285-.892.447-1.271l.645-1.53h1.473l-1.907 3.872v2.863h-1.342v-2.863l-1.883-3.872h1.476l.76 1.767zM281.641 278.132v-9.934h14.542v2.317h-8.697v1.421h7.361v2.317h-7.361v1.564h9.045v2.315zM311.156 271.078c-.097-.343-.421-.548-.84-.672-.426-.122-.948-.179-1.514-.179-1.284 0-1.857.206-1.857.564 0 1.487 10.257.563 10.257 4.184 0 2.299-3.441 3.416-8.346 3.416-4.715 0-7.786-1.527-7.907-3.322h5.595c.127.354.476.621.975.791.461.164 1.09.246 1.653.246 1.468 0 2.43-.262 2.43-.735 0-1.497-10.25-.469-10.25-4.262 0-2.111 3.263-3.176 7.725-3.176 4.952 0 7.214 1.414 7.628 3.145h-5.549zM327.862 274.665v3.468h-5.852v-9.935h8.424c5.95 0 7.902.9 7.902 2.828 0 1.145-.912 2.108-2.993 2.432 1.881.383 3.021.632 3.021 2.631 0 1.299-.073 1.739.617 1.739v.305h-5.917c-.146-.219-.294-.858-.294-1.743 0-1.29-.407-1.725-3.127-1.725h-1.781zm0-2.175h2.305c1.807 0 2.775-.249 2.775-.938 0-.702-.989-1.037-2.354-1.037h-2.726v1.975zM344.047 278.132v-9.935h8.521c4.016 0 7.212.521 7.212 2.497 0 1.022-1.186 1.768-2.324 2.163 1.929.276 2.969 1.204 2.969 2.281 0 2.218-3.05 2.993-7.678 2.993h-8.7zm5.847-4.152v1.837h2.552c1.437 0 2.527-.17 2.527-.915 0-.867-1.365-.922-3.224-.922h-1.855zm0-3.465v1.655h2.424c1.168 0 2.011-.289 2.011-.864 0-.776-1.144-.791-2.382-.791h-2.053z" />
		<path
			d="M 283.1 182.6 c 0 -2 1.7 -3.5 3.8 -3.5 c 2.1 0 3.7 1.6 3.7 3.5 c 0 2 -1.7 3.6 -3.7 3.6 c -2.1 0 -3.8 -1.6 -3.8 -3.6 m 6.8 0 c 0 -1.6 -1.4 -2.9 -3.1 -2.9 c -1.7 0 -3.1 1.3 -3.1 2.9 c 0 1.6 1.4 3 3.1 3 c 1.7 0 3.1 -1.3 3.1 -3 m -3.9 0.2 v 1.8 h -0.7 v -4.2 h 1.4 c 0.8 0 1.7 0.2 1.7 1.2 c 0 0.5 -0.3 0.9 -0.9 1 v 0 c 0.6 0.1 0.7 0.4 0.7 0.8 c 0.1 0.4 0.1 0.8 0.3 1.2 h -0.9 c 0 -0.2 -0.1 -0.5 -0.1 -0.7 c -0.1 -0.4 -0.1 -0.7 -0.3 -0.9 c -0.2 -0.2 -0.4 -0.2 -0.6 -0.2 h -0.6 z m 0.7 -0.7 c 0.6 0 0.8 -0.3 0.8 -0.6 c 0 -0.3 -0.2 -0.5 -0.7 -0.5 h -0.8 v 1.1 h 0.7 z" />
		<path fill="#ffffff"
			d="M281.617 174.874v-13.339h2.625c1.371 0 2.62.664 2.62 2.701v1.178c0 .998-.382 2.086-1.72 2.181v.037c1.402.087 1.72.729 1.72 2.241v2.646c0 1.29.206 1.834.331 2.354h-2.259c-.16-.371-.3-.803-.3-1.728v-3.023c0-.828 0-1.484-.791-1.484v6.235h-2.226zm2.227-7.773h.271c.361 0 .52-.2.52-.84v-1.968c0-.635-.158-.842-.52-.842h-.271v3.65zM289.243 161.535h2.95l1.342 13.339h-2.32l-.256-3.633h-1.053l-.353 3.633h-1.98l1.67-13.339zm1.579 7.802l-.307-5.479h-.063l-.356 5.479h.726zM297.529 174.874h-2.231v-11.422h-1.501v-1.917h5.227v1.917h-1.495zM299.681 161.535h2.228v13.339h-2.228zM303.406 174.874v-13.339h3.089l1.138 8.663h.03v-8.663h1.741v13.339h-2.653l-1.576-10.486-.033.037v10.449zM314.387 173.921h-.038a1.885 1.885 0 01-1.73 1.217c-1.486 0-2.24-.991-2.24-2.435v-8.987c0-1.783 1.239-2.44 2.618-2.44 1.373 0 2.618.657 2.618 2.44v2.523h-2.224v-2.095c0-.381-.05-.886-.395-.886-.351 0-.397.505-.397.886v8.127c0 .375.047.874.397.874.345 0 .395-.499.395-.874v-2.284h-.556v-1.907h2.779v6.793h-1.074l-.153-.952zM319.766 174.874v-13.339h2.615c1.374 0 2.623.664 2.623 2.701v2.737c0 2.041-1.249 2.699-2.623 2.699h-.395v5.201h-2.22zm2.22-7.116h.273c.358 0 .517-.204.517-.845v-2.62c0-.635-.158-.842-.517-.842h-.273v4.307zM325.983 174.874v-13.339h4.162v1.917h-1.942v3.052h1.869v1.909h-1.869v4.559h1.942v1.902zM330.96 174.874v-13.339h3.094l1.138 8.663h.037v-8.663h1.735v13.339h-2.66l-1.576-10.486-.027.037v10.449zM337.937 161.535h2.618c1.379 0 2.622.664 2.622 2.439v8.472c0 1.776-1.243 2.428-2.622 2.428h-2.618v-13.339zm2.222 11.434h.396c.351 0 .396-.509.396-.882v-7.751c0-.374-.045-.885-.396-.885h-.396v9.518zM344.278 161.535h2.232v13.339h-2.232zM347.685 174.874v-13.339h3.096l1.135 8.663h.033v-8.663h1.734v13.339h-2.655l-1.576-10.486-.034.037v10.449zM358.672 173.921h-.04a1.89 1.89 0 01-1.736 1.217c-1.479 0-2.233-.991-2.233-2.435v-8.987c0-1.783 1.238-2.44 2.617-2.44 1.374 0 2.621.657 2.621 2.44v2.523h-2.221v-2.095c0-.381-.049-.886-.4-.886-.351 0-.396.505-.396.886v8.127c0 .375.046.874.396.874.352 0 .4-.499.4-.874v-2.284h-.56v-1.907h2.78v6.793h-1.07l-.158-.952z" />
		<path
			d="M325.648 228.726c-1.352-4.787-4.021-7.583-7.851-8.563 2.375-2.646 3.728-6.769 1.908-13.238-2.553-9.031-9.03-13.393-16.908-11.389l-17.911 4.56-.363.095 14.823 52.591 11.992-3.048s-4.862-17.232-5.713-20.269l.58-.143c1.835-.472 3.168-.456 4.067.039 1.583.876 2.317 3.508 3.158 6.555l.669 2.426c.793 2.926 1.605 5.949 3.668 8.534l.809 1.01 13.696-3.479-1.837-2.26c-.924-1.132-3.223-7.855-4.787-13.421m-26.506-22.248c1.507-.387 3.053-.775 3.053-.775 1.453-.365 3.878-.985 5.652 5.313.34 1.224 1.879 7.371-1.813 8.311 0 0-1.539.39-3.05.776a9915.075 9915.075 0 00-3.842-13.625M337.103 186.797l-16.137 4.112-1.932.493L333.859 244l12.244-3.12s-4.77-16.898-5.625-19.919c2.068-.526 5.266-1.335 5.266-1.335 9.558-2.445 13.208-9.534 10.264-19.982-3.849-13.607-12.393-14.502-18.905-12.847m-3.206 10.835l3.716-.949c2.12-.538 4.532-.538 6.445 6.239.906 3.225-.042 6.734-1.946 7.228 0 0-2.367.59-4.372 1.102-.874-3.101-2.961-10.516-3.843-13.62M360.412 157.749h2.028v3.77h-2.028v116.854h2.028v3.768h1.941V157.749z" />
		<g>
			<path fill="#ffffff" d="M 156.4 155.4 H 66 v 128.5 h 91.1 V 155.4 z" />
			<path d="M 68.4 157.8 h 86.4 v 123.7 h -86.4 z" />
			<path fill="#ffffff" d="M 72.9 178.2 h 77.2 v 76.8 h -77.2 z" />
			<path
				d="M 157.4 154.5 H 65 v 130.3 h 93.1 v -130.3 h -0.7 z m -0.7 129.1 H 66.3 V 155.7 h 90.4 v 127.8 z" />
			<path fill="#ffffff"
				d="M76.859 262.554c-.012.132-.021.268-.032.396-.068 1.253-.5 2.217-1.986 2.217-2.196 0-2.333-1.339-2.333-3.172v-.977c.053-1.762.199-3.051 2.333-3.051 1.186.012 1.855.602 1.947 1.773.021.167.04.354.027.522h-1.311c-.057-.436-.012-1.262-.664-1.262-1.053 0-.965 1.204-.965 1.742v1.896c0 .568.05 1.487.965 1.487.726 0 .648-1.128.672-1.57h1.347zM77.861 261.019c.056-1.762.199-3.051 2.333-3.051 2.134 0 2.274 1.289 2.33 3.051v.977c0 1.833-.142 3.172-2.33 3.172-2.19 0-2.333-1.339-2.333-3.172v-.977zm1.368 1.618c0 .568.047 1.487.966 1.487.949 0 .958-.937.958-1.6v-1.752c0-.551.032-1.773-.958-1.773-1.047 0-.966 1.204-.966 1.742v1.896zM86.938 258.135h1.34V265h-1.396l-1.046-2.446c-.346-.814-.633-1.646-.948-2.729h-.019c.05.575.104 1.263.146 1.972.039.679.066 1.359.066 1.91V265h-1.333v-6.865h1.382l1.034 2.503c.339.791.633 1.606.957 2.723h.016c-.047-.617-.096-1.293-.134-1.947a37.178 37.178 0 01-.065-1.934v-1.345zM89.085 258.135h4.448v1.01h-1.55V265h-1.34v-5.855h-1.558zM94.293 265v-6.865h3.76v1.01h-2.422v1.728h2.235v1.009h-2.235v2.112h2.422V265zM102.293 258.135h1.333V265h-1.395l-1.035-2.446c-.351-.814-.639-1.646-.953-2.729h-.019c.05.575.104 1.263.146 1.972.041.679.065 1.359.065 1.91V265H99.1v-6.865h1.38l1.04 2.503c.345.791.627 1.606.957 2.723h.016a82.12 82.12 0 01-.131-1.947 34.22 34.22 0 01-.069-1.934v-1.345zM104.44 258.135h4.448v1.01h-1.557V265h-1.332v-5.855h-1.559zM113.39 262.039V265h-1.34v-6.865h2.526c1.156 0 2.024.38 2.024 1.643 0 .755-.193 1.535-1.085 1.657v.024c.791.101 1.026.579 1.026 1.251 0 .273-.037 1.955.288 2.162V265h-1.475c-.158-.438-.127-1.286-.14-1.736-.006-.424 0-.995-.458-1.129-.365-.104-.748-.097-1.131-.097h-.235zm0-1.004h1.047c.439-.024.778-.293.778-.992 0-.767-.336-.895-.835-.897h-.99v1.889zM117.33 265l1.711-6.865h1.793l1.62 6.865h-1.423l-.352-1.736h-1.563L118.76 265h-1.43zm1.991-2.743h1.142l-.357-1.954c-.065-.318-.089-.626-.134-.949a5.15 5.15 0 00-.05-.462h-.012c-.029.144-.035.299-.047.462-.05.323-.081.631-.14.949l-.402 1.954zM122.71 258.135h4.449v1.01h-1.552V265h-1.339v-5.855h-1.558zM127.925 265v-6.865h3.754v1.01h-2.415v1.728h2.22v1.009h-2.22v2.112h2.415V265zM132.768 265v-6.865h2.777c.326 0 .977.131 1.384.77.301.48.383 1.244.383 2.376 0 1.356 0 2.923-1.089 3.546-.295.156-.657.174-.992.174h-2.463zm1.91-1.006c1.193 0 1.271-.608 1.271-2.586 0-1.63-.177-2.263-.973-2.263h-.879v4.849h.581zM140.905 265v-6.865h2.151c.575 0 1.144.03 1.515.501.304.375.356.768.356 1.229 0 .6-.14 1.186-.854 1.441v.019c.742.104 1.034.706 1.034 1.601 0 .279-.018.563-.097.837-.286.872-.803 1.237-1.746 1.237h-2.359zm1.615-1.006c.28 0 .563.024.81-.07.359-.16.398-.611.398-.951 0-.739-.148-1.06-.97-1.06h-.517v2.081h.279zm-.037-3.085c.326 0 .739.019.956-.246.122-.173.14-.404.14-.742 0-.505-.113-.761-.728-.775h-.611v1.764h.243zM147.911 259.933c.14.344.255.696.31 1.056h.021c.101-.536.28-.917.441-1.293l.629-1.561h1.463l-1.889 3.944V265h-1.329v-2.921l-1.855-3.944h1.454l.755 1.798zM72.743 277.174v-10.148h14.406v2.376H78.53v1.448h7.295v2.367H78.53v1.59h8.955v2.367zM101.971 269.98c-.089-.344-.414-.565-.835-.69-.411-.128-.925-.188-1.495-.188-1.27 0-1.844.219-1.844.587 0 1.515 10.16.574 10.16 4.259 0 2.351-3.413 3.495-8.266 3.495-4.663 0-7.704-1.561-7.825-3.393h5.542c.122.366.467.634.962.801.461.17 1.067.259 1.641.259 1.448 0 2.408-.271 2.408-.749 0-1.536-10.165-.483-10.165-4.353 0-2.16 3.243-3.242 7.659-3.242 4.904 0 7.137 1.441 7.558 3.215h-5.5zM118.519 273.642v3.532h-5.791v-10.148h8.338c5.886 0 7.827.926 7.827 2.896 0 1.171-.907 2.147-2.963 2.482 1.862.395 2.993.641 2.993 2.686 0 1.323-.082 1.776.608 1.776v.308h-5.867c-.146-.226-.29-.877-.29-1.773 0-1.33-.396-1.759-3.093-1.759h-1.762zm0-2.224h2.274c1.797 0 2.75-.265 2.75-.964 0-.712-.972-1.053-2.33-1.053h-2.693v2.017zM134.544 277.174v-10.148h8.438c3.979 0 7.143.545 7.143 2.559 0 1.043-1.181 1.804-2.309 2.202 1.913.283 2.941 1.234 2.941 2.327 0 2.27-3.011 3.061-7.607 3.061h-8.606zm5.786-4.237v1.87h2.524c1.43 0 2.503-.173 2.503-.931 0-.886-1.341-.939-3.19-.939h-1.837zm0-3.535v1.691h2.409c1.15 0 1.99-.302 1.99-.888 0-.791-1.138-.804-2.357-.804h-2.042z" />
			<path
				d="M 75.2 185 c 0 -2.2 2 -4.1 4.5 -4.1 c 2.5 0 4.4 1.8 4.4 4.1 c 0 2.3 -2 4.1 -4.4 4.1 c -2.5 0 -4.5 -1.8 -4.5 -4.1 m 8.1 0 c 0 -1.8 -1.6 -3.3 -3.6 -3.3 c -2 0 -3.7 1.5 -3.7 3.3 c 0 1.9 1.6 3.4 3.7 3.4 c 2 0 3.6 -1.5 3.6 -3.4 m -4.6 0.3 v 2.1 h -0.8 v -4.8 h 1.7 c 1 0 1.9 0.2 1.9 1.3 c 0 0.5 -0.4 1 -1 1.1 v 0 c 0.7 0.1 0.8 0.4 0.9 0.9 c 0.1 0.4 0.1 0.9 0.3 1.4 h -1 c -0.1 -0.3 -0.1 -0.6 -0.2 -0.9 c -0.1 -0.4 -0.1 -0.8 -0.3 -1 c -0.2 -0.2 -0.5 -0.2 -0.8 -0.2 h -0.7 m 0.9 -0.8 c 0.8 0 0.9 -0.3 0.9 -0.7 c 0 -0.4 -0.2 -0.5 -0.8 -0.5 h -1 v 1.2 h 0.9 z" />
			<path fill="#ffffff"
				d="M 143.9 168.6 h 3 v -3.4 h 2 v 3.4 h 3 v 1.9 h -3 v 3.4 h -2 v -3.4 h -3 z M 137.3 161.9 h 6 v 2.3 l -2.7 9.7 h -2.5 l 3 -10.1 H 137.3 z M 130.9 163.8 c 0.8 -0.5 1.6 -1.1 2.2 -1.8 h 2.1 v 11.9 h -2.4 v -9.2 c -0.6 0.5 -1.2 1 -1.9 1.3 v -2.2 z M 121.7 171.9 v -3.6 h 3.6 v -1.9 h -3.6 v -3 h 3.9 v -1.9 h -6.3 v 12.4 h 6.4 v -1.9 z M 115.8 167.8 v 0 c 1.6 -0.3 2.1 -1.4 2.1 -3 c 0 -2.1 -1.1 -3.2 -2.7 -3.2 h -4.4 v 12.4 h 2.4 v -5.1 h 0.6 c 1.9 0 1.7 1.3 1.7 2.7 c 0 0.8 -0.1 1.6 0.3 2.4 h 2.4 c -0.2 -0.5 -0.3 -2.8 -0.3 -3.6 c 0 -2.2 -1.6 -2.4 -2.1 -2.4 m -1.5 -1 h -1.1 v -3.4 h 1.1 c 0.8 0 1.2 0.4 1.2 1.6 c 0 0.8 -0.3 1.8 -1.2 1.8 M 106.9 170.1 c 0 1.4 -0.5 2.1 -1.5 2.1 c -0.9 0 -1.5 -0.6 -1.5 -2.1 v -8.6 h -2.4 v 8.8 c 0 2.3 1.3 3.8 3.9 3.8 c 2.9 0 3.9 -1.9 3.9 -3.8 v -8.8 h -2.4 v 8.6 z M 93 163.6 h 2.7 v 10.3 h 2.4 v -10.3 h 2.7 v -2.1 h -7.8 z M 87.9 161.5 l -3.2 12.4 h 2.4 l 0.7 -2.7 h 3.3 l 0.6 2.7 h 2.5 l -3.1 -12.4 h -3.2 z m 0.3 7.7 l 1.1 -5.3 h 0 l 1.2 5.3 h -2.3 z M 78.3 169.9 h 0 l -1.8 -8.4 h -3.9 v 12.4 h 2.3 v -9.5 h 0 l 2.1 9.5 h 2.3 l 2.2 -9.5 h 0 v 9.5 h 2.3 v -12.4 h -3.7 z" />
			<path
				d="M 75.5 195.5 l 24.2 -6.4 l 13.8 32.1 l 0.1 0 l -4.2 -34.6 l 24.2 -6.4 l 15.1 56 l -14.7 3.9 l -10.8 -40 l -0.1 0 l 4.6 41.7 l -15.9 4.3 l -17 -38.4 l -0.1 0 l 10.8 40 l -14.7 3.9 z" />
		</g>
		<g>
			<path fill="#ffffff" d="M 261.1 155.4 h -90.4 v 128.5 h 91.1 V 155.4 z" />
			<path d="M 173.1 157.8 h 86.4 v 123.7 h -86.4 z" />
			<path fill="#ffffff" d="M 177.6 178.2 h 77.2 v 76.8 h -77.2 z" />
			<path
				d="M 262.1 154.5 h -92.4 v 130.4 h 93.1 V 154.5 h -0.7 z m -0.7 129.1 h -90.4 V 155.7 h 90.4 v 127.8 z" />
			<path fill="#ffffff"
				d="M181.546 262.554c-.012.132-.021.268-.032.396-.068 1.253-.5 2.217-1.986 2.217-2.196 0-2.333-1.339-2.333-3.172v-.979c.053-1.759.199-3.048 2.333-3.048 1.186.012 1.855.604 1.947 1.776.021.164.04.352.027.52h-1.311c-.057-.438-.012-1.265-.664-1.265-1.053 0-.965 1.204-.965 1.742v1.896c0 .568.05 1.487.965 1.487.726 0 .648-1.128.672-1.57h1.347zM182.548 261.016c.056-1.759.199-3.048 2.333-3.048 2.134 0 2.274 1.289 2.33 3.048v.979c0 1.833-.142 3.172-2.33 3.172-2.19 0-2.333-1.339-2.333-3.172v-.979zm1.368 1.621c0 .568.047 1.487.966 1.487.949 0 .958-.937.958-1.6v-1.752c0-.551.032-1.773-.958-1.773-1.047 0-.966 1.204-.966 1.742v1.896zM191.625 258.135h1.34V265h-1.396l-1.046-2.446c-.346-.814-.633-1.642-.948-2.729h-.019a73.6 73.6 0 01.146 1.968c.039.683.066 1.363.066 1.914V265h-1.333v-6.865h1.382l1.035 2.503c.339.791.632 1.606.956 2.723h.016c-.047-.617-.096-1.293-.134-1.95a36.953 36.953 0 01-.065-1.928v-1.348zM193.772 258.135h4.448v1.01h-1.55V265h-1.34v-5.855h-1.558zM198.98 265v-6.865h3.76v1.01h-2.422v1.728h2.235v1.009h-2.235v2.112h2.422V265zM206.98 258.135h1.332V265h-1.395l-1.035-2.446c-.351-.814-.639-1.642-.953-2.729h-.018a73.6 73.6 0 01.146 1.968c.041.683.065 1.363.065 1.914V265h-1.336v-6.865h1.381l1.04 2.503c.345.791.626 1.606.956 2.723h.016a76.457 76.457 0 01-.131-1.95 33.99 33.99 0 01-.068-1.928v-1.348zM209.128 258.135h4.446v1.01h-1.556V265h-1.332v-5.855h-1.558zM218.076 262.039V265h-1.34v-6.865h2.527c1.155 0 2.023.38 2.023 1.643 0 .755-.193 1.535-1.086 1.657v.024c.791.101 1.027.579 1.027 1.248 0 .279-.037 1.961.287 2.165V265h-1.475c-.157-.438-.127-1.286-.139-1.736-.007-.424 0-.995-.458-1.129-.365-.104-.749-.097-1.132-.097h-.234zm0-1.001h1.047c.439-.027.779-.296.779-.995 0-.767-.336-.895-.836-.897h-.99v1.892zM222.018 265l1.711-6.865h1.793l1.62 6.865h-1.423l-.352-1.736h-1.564l-.356 1.736h-1.429zm1.99-2.743h1.143l-.357-1.954c-.064-.321-.09-.626-.134-.949a5.543 5.543 0 00-.05-.462h-.012c-.029.144-.035.299-.048.462-.05.323-.081.628-.14.949l-.402 1.954zM227.396 258.135h4.45v1.01h-1.551V265h-1.34v-5.855h-1.559zM232.612 265v-6.865h3.753v1.01h-2.414v1.728h2.221v1.009h-2.221v2.112h2.414V265zM237.455 265v-6.865h2.777c.325 0 .977.131 1.384.77.302.48.384 1.244.384 2.373 0 1.359 0 2.926-1.09 3.549-.295.156-.656.174-.991.174h-2.464zm1.91-1.006c1.192 0 1.271-.608 1.271-2.589 0-1.627-.176-2.26-.973-2.26h-.88v4.849h.582zM245.592 265v-6.865h2.15c.575 0 1.145.027 1.516.501.304.375.355.768.355 1.232 0 .597-.14 1.183-.854 1.438v.019c.742.104 1.034.706 1.034 1.601 0 .279-.019.56-.098.84-.286.869-.803 1.234-1.746 1.234h-2.357zm1.615-1.006c.28 0 .563.024.81-.07.358-.157.397-.611.397-.955 0-.735-.148-1.056-.97-1.056h-.517v2.081h.28zm-.037-3.081c.326 0 .74.015.956-.25.122-.173.14-.401.14-.742 0-.505-.113-.761-.727-.775h-.611v1.768h.242zM252.598 259.933c.14.344.256.693.311 1.056h.021c.101-.536.28-.917.441-1.293l.63-1.561h1.463l-1.889 3.944V265h-1.33v-2.921l-1.855-3.944h1.455l.753 1.798zM177.43 277.174v-10.148h14.406v2.376h-8.619v1.448h7.295v2.367h-7.295v1.59h8.955v2.367zM206.658 269.977c-.09-.341-.414-.563-.836-.688-.41-.128-.924-.188-1.494-.188-1.271 0-1.844.219-1.844.587 0 1.515 10.16.574 10.16 4.259 0 2.351-3.414 3.495-8.267 3.495-4.663 0-7.704-1.561-7.825-3.393h5.543c.121.366.467.634.962.801.461.17 1.067.259 1.642.259 1.447 0 2.407-.271 2.407-.749 0-1.536-10.165-.483-10.165-4.353 0-2.16 3.243-3.242 7.66-3.242 4.903 0 7.137 1.441 7.558 3.212h-5.501zM223.205 273.642v3.532h-5.79v-10.148h8.338c5.886 0 7.827.926 7.827 2.896 0 1.171-.906 2.15-2.963 2.482 1.861.395 2.992.641 2.992 2.686 0 1.323-.082 1.776.609 1.776v.308h-5.867c-.146-.226-.289-.877-.289-1.773 0-1.33-.396-1.759-3.094-1.759h-1.763zm0-2.22h2.274c1.798 0 2.75-.269 2.75-.968 0-.712-.973-1.053-2.331-1.053h-2.693v2.021zM239.231 277.174v-10.148h8.438c3.979 0 7.143.545 7.143 2.556 0 1.046-1.182 1.807-2.31 2.205 1.913.286 2.942 1.234 2.942 2.327 0 2.27-3.012 3.061-7.608 3.061h-8.605zm5.787-4.237v1.87h2.523c1.431 0 2.504-.173 2.504-.931 0-.886-1.342-.939-3.19-.939h-1.837zm0-3.535v1.691h2.408c1.15 0 1.99-.302 1.99-.888 0-.791-1.139-.804-2.357-.804h-2.041z" />
			<path
				d="M 179.9 185 c 0 -2.2 2 -4.1 4.5 -4.1 c 2.5 0 4.4 1.8 4.4 4.1 c 0 2.3 -2 4.1 -4.4 4.1 c -2.5 0 -4.5 -1.8 -4.5 -4.1 m 8.1 0 c 0 -1.8 -1.6 -3.3 -3.6 -3.3 c -2 0 -3.7 1.5 -3.7 3.3 c 0 1.9 1.6 3.4 3.7 3.4 c 2 0 3.6 -1.5 3.6 -3.4 m -4.6 0.3 v 2.1 h -0.8 v -4.8 h 1.7 c 1 0 1.9 0.2 1.9 1.3 c 0 0.6 -0.4 1 -1 1.1 v 0 c 0.7 0.1 0.8 0.4 0.9 0.9 c 0.1 0.5 0.1 0.9 0.3 1.4 h -1 c -0.1 -0.3 -0.1 -0.6 -0.2 -0.9 c -0.1 -0.4 -0.1 -0.8 -0.3 -1 c -0.2 -0.2 -0.5 -0.2 -0.8 -0.2 h -0.7 m 0.9 -0.8 c 0.8 0 0.9 -0.3 0.9 -0.7 c 0 -0.4 -0.2 -0.5 -0.8 -0.5 h -1 v 1.2 h 0.9 z" />
			<path fill="#ffffff"
				d="M 248.3 168 v 0 c 0.9 -0.2 1.2 -0.8 1.2 -2.3 v -1.1 c 0 -1.8 -0.5 -2.7 -2.3 -2.7 c -1.7 0 -2.3 0.9 -2.3 2.7 v 1.1 c 0 1.5 0.3 2.1 1.2 2.3 v 0 c -0.9 0.3 -1.3 0.6 -1.3 2.4 v 1 c 0 2.2 0.5 3.1 2.4 3.1 c 1.9 0 2.4 -0.8 2.4 -3.1 v -1 c 0 -1.8 -0.3 -2.1 -1.3 -2.4 m -1.9 -3.4 c 0 -0.7 0 -1.4 0.8 -1.4 c 0.8 0 0.8 0.7 0.8 1.4 v 1.6 c 0 0.6 0 1.2 -0.8 1.2 c -0.8 0 -0.8 -0.6 -0.8 -1.7 v -1 z m 1.6 7.1 c 0 0.8 0 1.6 -0.9 1.6 c -0.9 0 -0.9 -0.8 -0.9 -1.6 v -1.5 c 0 -0.8 0 -1.5 0.9 -1.5 c 0.9 0 0.9 0.8 0.9 1.5 v 1.5 z M 240.1 164 v 1.6 c 0.6 -0.5 0.9 -0.8 1.2 -1.3 h 0 v 10.1 h 1.5 v -12.5 h -1.3 c -0.2 0.6 -1.1 1.7 -1.4 2 M 234.6 167.2 h 0 l -1.4 -5.3 h -1.6 l 2.2 7.4 v 5.1 h 1.6 v -5.1 l 2.2 -7.4 h -1.4 z M 230.3 161.9 h -1.6 v 12.5 h 4.3 v -1.5 h -2.7 z M 226 172.3 h 0 l -1.9 -10.4 h -2.2 v 12.5 h 1.4 v -10.6 h 0 l 1.9 10.6 h 2.3 v -12.5 h -1.5 z M 218.1 161.8 c -2.2 0 -2.7 1.5 -2.7 3.3 v 6.3 c 0 1.9 0.7 3.1 2.7 3.1 c 2.2 0 2.7 -1.5 2.7 -3.3 v -6.3 c 0 -1.9 -0.7 -3.1 -2.7 -3.1 m 1.1 9.7 c 0 1.1 -0.4 1.6 -1.1 1.6 c -0.7 0 -1.1 -0.6 -1.1 -1.6 v -6.5 c 0 -1.2 0.4 -1.8 1.1 -1.8 c 0.7 0 1.1 0.6 1.1 1.8 v 6.5 z M 208.1 164.6 c 0 -1 0.3 -1.4 1 -1.4 c 0.6 0 0.9 0.4 0.9 1.1 v 1 h 1.5 v -1.2 c 0 -0.9 -0.2 -1.3 -0.5 -1.6 c -0.4 -0.4 -1 -0.7 -1.9 -0.7 c -1.7 0 -2.6 0.9 -2.6 2.9 c 0 1.7 0.8 2.7 1.9 3.8 c 1.7 1.8 1.7 2.1 1.7 3.2 c 0 0.8 -0.2 1.4 -1 1.4 c -0.6 0 -0.9 -0.5 -0.9 -1.4 v -1 h -1.6 v 1.5 c 0 1.6 1 2.2 2.5 2.2 c 1.9 0 2.6 -1.1 2.6 -3.1 c 0 -1.5 -0.3 -2.1 -1.8 -3.9 c -1.5 -1.7 -1.6 -2.2 -1.6 -3 M 200.6 163.4 h 1.9 v 11 h 1.6 v -11 h 1.9 v -1.4 h -5.4 z M 199.2 161.9 h -1.6 v 12.5 h 4.3 v -1.5 h -2.7 z M 194.9 171.9 c 0 0.9 -0.3 1.3 -1.1 1.3 c -0.8 0 -1.1 -0.4 -1.1 -1.3 v -9.9 h -1.6 v 9.7 c 0 1.4 0.5 2.9 2.7 2.9 c 2.2 0 2.7 -1.5 2.7 -2.9 v -9.7 h -1.6 v 9.9 z M 187.3 161.9 h -2.6 v 12.5 h 2.3 c 2.5 0 3 -1 3 -4.2 v -3.7 c 0 -3.6 -0.2 -4.6 -2.8 -4.6 m 1.2 8.2 c 0 2.1 -0.2 2.8 -1.4 2.8 h -0.8 v -9.6 h 0.6 c 1.3 0 1.5 0.6 1.5 2.5 v 4.3 z M 179.8 161.9 l -2.5 12.5 h 1.6 l 0.5 -3.2 h 2.5 l 0.5 3.2 h 1.6 l -2.3 -12.5 h -1.8 z m -0.2 7.8 l 1 -6 h 0 l 1 6 h -2 z M 253.6 167.3 v -2.6 h -1 v 2.6 h -2.4 v 1 h 2.4 v 2.6 h 1 v -2.6 h 2.4 v -1 z" />
			<path
				d="M 239.4 217.3 c -0.9 0.5 -2 0.8 -3.2 1.1 c -8.2 2 -14 -2.4 -16.3 -10.1 c -1.7 -5.7 -0.7 -10.6 3.2 -13.7 l -9.5 -13.2 l -20.7 5.1 l -4.2 67 l 19.9 -4.9 l -0.1 -8.7 l 20.3 -5 l 4.8 7.5 l 20.3 -5 l -14.6 -20.3 m -30.6 8.9 l -0.2 -23.6 l 13 20.5 l -12.8 3.1 z" />
			<path
				d="M224.921 207.101c1.552 5.275 4.696 9.267 10.319 7.892a8.917 8.917 0 002.014-.761L225.54 197.94c-1.751 2.245-1.659 5.608-.619 9.161" />
			<path
				d="M 229.5 195.6 c 5.6 -1.4 8.8 2.6 10.3 7.9 c 1.3 4.6 1.1 8.8 -2.6 10.8 l 2.2 3 c 5.7 -2.8 7.3 -8.4 5.4 -15 c -2.3 -7.7 -8.1 -12.1 -16.3 -10.1 c -2.2 0.5 -3.9 1.4 -5.3 2.5 l 2.4 3.3 c 0.9 -1.1 2.1 -1.9 4 -2.4" />
		</g>
	</g>
	<g>
		<path fill="#ffffff" d="M 314.8 13.4 h -90.4 v 128.5 h 91.1 V 13.4 z" />
		<path d="M 226.7 15.8 h 86.4 v 123.7 h -86.4 z" />
		<path fill="#ffffff" d="M 231.3 36.2 h 77.2 v 76.8 h -77.2 z" />
		<path d="M 315.8 12.5 h -92.4 v 130.3 h 93.1 V 12.5 h -0.7 z m -0.7 129.1 h -90.4 V 13.7 h 90.4 v 127.8 z" />
		<path fill="#ffffff"
			d="M234.843 120.558c-.013.131-.021.268-.032.396-.068 1.25-.5 2.218-1.986 2.218-2.196 0-2.333-1.341-2.333-3.176v-.976c.053-1.761.199-3.051 2.333-3.051 1.186.012 1.855.605 1.947 1.776.021.165.04.356.027.523h-1.311c-.056-.438-.012-1.269-.663-1.269-1.053 0-.969 1.208-.969 1.746v1.892c0 .572.053 1.491.969 1.491.725 0 .648-1.129.672-1.57h1.346zM235.845 119.019c.056-1.761.199-3.051 2.333-3.051 2.134 0 2.274 1.29 2.331 3.051v.976c0 1.834-.14 3.176-2.331 3.176-2.189 0-2.333-1.341-2.333-3.176v-.976zm1.367 1.618c0 .572.046 1.491.965 1.491.951 0 .96-.94.96-1.604v-1.749c0-.551.03-1.776-.96-1.776-1.046 0-.965 1.208-.965 1.746v1.892zM244.922 116.138h1.34V123h-1.396l-1.047-2.443c-.346-.818-.632-1.646-.948-2.729h-.019c.05.575.104 1.26.146 1.968.038.682.065 1.359.065 1.914V123h-1.333v-6.862h1.383l1.034 2.503c.34.791.634 1.603.957 2.723h.016c-.047-.621-.096-1.293-.135-1.95a36.97 36.97 0 01-.064-1.932v-1.344zM247.069 116.138h4.448v1.007h-1.55V123h-1.341v-5.855h-1.557zM252.276 123v-6.862h3.761v1.007h-2.423v1.731h2.233v1.007h-2.233v2.114h2.423V123zM260.277 116.138h1.331V123h-1.394l-1.034-2.443c-.352-.818-.639-1.646-.954-2.729h-.019c.051.575.104 1.26.146 1.968.044.682.065 1.359.065 1.914V123h-1.335v-6.862h1.379l1.041 2.503c.344.791.626 1.603.956 2.723h.016a77.633 77.633 0 01-.132-1.95 34.964 34.964 0 01-.067-1.932v-1.344zM262.425 116.138h4.446v1.007h-1.558V123h-1.331v-5.855h-1.557zM271.373 120.041V123h-1.339v-6.862h2.525c1.156 0 2.024.377 2.024 1.64 0 .754-.193 1.536-1.085 1.661v.021c.79.103 1.025.581 1.025 1.25 0 .277-.035 1.959.284 2.163V123h-1.471c-.157-.438-.127-1.284-.139-1.737-.007-.42 0-.995-.458-1.128-.365-.101-.748-.095-1.132-.095h-.234zm0-1.004h1.047c.439-.024.779-.292.779-.995 0-.766-.334-.894-.836-.897h-.99v1.892zM275.314 123l1.711-6.862h1.793l1.62 6.862h-1.424l-.354-1.737h-1.56l-.356 1.737h-1.43zm1.991-2.743h1.143l-.357-1.953c-.068-.319-.09-.626-.134-.946a4.874 4.874 0 00-.05-.465h-.013c-.028.146-.035.301-.047.465-.051.319-.081.626-.14.946l-.402 1.953zM280.694 116.138h4.449v1.007h-1.552V123h-1.34v-5.855h-1.557zM285.909 123v-6.862h3.754v1.007h-2.416v1.731h2.221v1.007h-2.221v2.114h2.416V123zM290.751 123v-6.862h2.777c.326 0 .977.131 1.385.767.301.48.383 1.244.383 2.375 0 1.357 0 2.923-1.089 3.547-.295.155-.657.173-.992.173h-2.464zm1.911-1.003c1.192 0 1.268-.608 1.268-2.589 0-1.63-.173-2.263-.97-2.263h-.879v4.852h.581zM298.893 123v-6.862h2.146c.578 0 1.144.027 1.516.499.304.374.358.767.358 1.232 0 .599-.143 1.183-.857 1.441v.015c.742.106 1.034.709 1.034 1.6 0 .283-.019.563-.098.839-.286.873-.804 1.235-1.746 1.235h-2.353zm1.611-1.003c.28 0 .563.024.807-.074.361-.158.4-.611.4-.952 0-.739-.148-1.056-.97-1.056h-.518v2.081h.281zm-.037-3.085c.326 0 .739.015.955-.25.122-.17.141-.401.141-.742 0-.505-.113-.76-.724-.775h-.615v1.767h.243zM305.894 117.933c.141.344.256.697.311 1.059h.021c.101-.539.28-.916.44-1.293l.631-1.56h1.463l-1.887 3.945V123h-1.332v-2.917l-1.855-3.945h1.454l.754 1.795zM230.727 135.174v-10.148h14.406v2.376h-8.619v1.451h7.295v2.367h-7.295v1.591h8.955v2.363zM259.954 127.98c-.091-.344-.414-.566-.835-.69-.41-.125-.922-.188-1.495-.188-1.271 0-1.843.222-1.843.59 0 1.512 10.159.575 10.159 4.256 0 2.351-3.412 3.495-8.266 3.495-4.66 0-7.704-1.561-7.825-3.392h5.542c.12.368.47.632.961.799.462.174 1.072.259 1.644.259 1.447 0 2.41-.271 2.41-.745 0-1.536-10.167-.484-10.167-4.356 0-2.16 3.242-3.243 7.658-3.243 4.904 0 7.138 1.442 7.559 3.215h-5.502zM276.503 131.643v3.532h-5.791v-10.148h8.338c5.886 0 7.827.925 7.827 2.896 0 1.171-.907 2.15-2.965 2.485 1.859.396 2.995.639 2.995 2.683 0 1.323-.083 1.779.607 1.779v.305h-5.867c-.146-.222-.289-.873-.289-1.771 0-1.333-.395-1.761-3.094-1.761h-1.761zm0-2.221h2.272c1.798 0 2.75-.265 2.75-.964 0-.712-.97-1.056-2.328-1.056h-2.694v2.02zM292.528 135.174v-10.148h8.438c3.979 0 7.143.544 7.143 2.558 0 1.046-1.181 1.807-2.309 2.206 1.913.283 2.941 1.232 2.941 2.327 0 2.267-3.012 3.058-7.607 3.058h-8.606zm5.785-4.234v1.871h2.525c1.43 0 2.503-.173 2.503-.931 0-.888-1.342-.939-3.19-.939h-1.838zm0-3.538v1.692h2.406c1.153 0 1.992-.302 1.992-.885 0-.794-1.137-.807-2.356-.807h-2.042zM229.481 20.438h4.984v1.488h-3.152v3.982h2.968v1.487h-2.968v4.304h3.152v1.478h-4.984zM234.718 20.438h1.831l1.906 10.136h.031l1.909-10.136h1.831l-2.693 12.739h-2.122zM243.584 20.438h4.983v1.488h-3.153v3.982h2.969v1.487h-2.969v4.304h3.153v1.478h-4.983zM249.356 20.438h2.834c2.679 0 2.953.693 2.953 3.483 0 1.712-.24 2.452-1.741 2.893v.037c1.245.122 1.667.736 1.667 1.935v2.774c0 .457 0 1.092.107 1.622h-1.722c-.181-.316-.217-.636-.217-1.146v-2.881c0-1.196-.219-1.512-1.43-1.512h-.627v5.539h-1.825V20.438zm1.826 5.719h.479c1.449 0 1.652-.262 1.652-2.166 0-1.892-.113-2.068-1.251-2.068h-.881v4.234zM255.373 20.438h1.831l1.59 5.366h.039l1.825-5.366h1.614l-2.547 7.52v5.219h-1.826v-5.219zM262.771 23.687c0-1.776.601-3.346 3.089-3.346 2.368 0 3.121 1.18 3.121 3.151v6.442c0 1.777-.607 3.352-3.121 3.352-2.336 0-3.089-1.183-3.089-3.157v-6.442zm1.832 6.546c0 1.098.511 1.68 1.258 1.68.772 0 1.289-.582 1.289-1.68v-6.689c0-1.25-.442-1.832-1.289-1.832-.818 0-1.258.582-1.258 1.832v6.689zM270.278 20.438h2.527l2.158 10.589h.044V20.438h1.713v12.739h-2.633l-2.161-10.864h-.033v10.864h-1.615zM278.077 20.438h4.99v1.488h-3.158v3.982h2.969v1.487h-2.969v4.304h3.158v1.478h-4.99zM289.912 22.841h-.039c-.391.493-.733.813-1.43 1.32V22.51c.423-.301 1.405-1.506 1.651-2.071h1.539v12.742h-1.722v-10.34zM294.283 23.474c0-2.288.557-3.136 2.731-3.136 2.178 0 2.731.848 2.731 3.136v6.671c0 2.29-.554 3.142-2.731 3.142-2.175 0-2.731-.852-2.731-3.142v-6.671zm1.725 6.957c0 .791 0 1.585 1.007 1.585 1.01 0 1.01-.794 1.01-1.585v-7.236c0-.794 0-1.588-1.01-1.588-1.007 0-1.007.794-1.007 1.588v7.236zM304.969 29.457h-3.868v-1.481h3.868v-3.723h1.53v3.723h3.863v1.481h-3.863v3.72h-1.53z" />
		<path
			d="M 238.3 90.6 c 2.4 -0.7 4.8 -1.7 6.2 -2.9 v 16.3 h 4.7 V 83.6 h -4.5 c -1.7 1.4 -3.5 2.3 -6.3 3.1 v 3.9 m -1.9 -39.4 l 49.5 -14.7 l 5 15.6 l -24.8 7.3 l 2 6.4 l 22.9 -6.8 l 5 15.6 l -22.9 6.8 l 2.1 6.7 l 25.6 -7.6 l 5 15.6 l -50.3 14.9 L 236.4 51.3 m 34.3 43 c 0 -6.8 -3.6 -10.8 -9.7 -10.8 c -8.2 0 -10.2 5.5 -10.2 10.8 c 0 6.4 3.2 10.8 10 10.8 c 6.7 0 10 -4.4 10 -10.8 m 5.6 0.9 h -3.5 v 1.9 h 3.5 v 3.4 h 2 v -3.4 h 3.5 v -1.9 h -3.5 v -3.4 h -2 v 3.4 z" />
		<path
			d="M 255 94 c 0 -6.8 2.8 -8.4 5.9 -8.4 c 3.5 0 5.5 2.6 5.5 8.6 c 0 3.7 -1 8.3 -5.5 8.3 c -4.4 0 -5.9 -3.5 -5.8 -8.5 M 236.9 38.6 h -1.3 v 3.9 h -0.6 v -3.9 h -1.3 v -0.4 h 3.2 v 0.4 z m 3 2.8 h 0 l 1.2 -3.2 h 1 v 4.3 h -0.6 v -3.8 h 0 L 240 42.4 h -0.3 l -1.5 -3.8 h 0 v 3.8 h -0.6 v -4.3 h 1 l 1.2 3.2 z" />
	</g>
</svg>