<svg xmlns="http://www.w3.org/2000/svg" viewBox="105 02 120 150">
    <path fill="#fff" d="M210.1 13.4h-90.4v128.5h91.1V13.4z" />
    <path d="M122.1 15.8h86.4v123.7h-86.4z" />
    <path fill="#fff" d="M126.6 36.2h77.2V113h-77.2z" />
    <path d="M211.1 12.5h-92.4v130.4h93.1V12.5h-.7zm-.7 129.1H120V13.7h90.4v127.8z" />
    <path fill="#fff"
        d="M130.544 120.555c-.012.131-.019.268-.031.396-.067 1.253-.499 2.217-1.989 2.217-2.196 0-2.33-1.338-2.33-3.172v-.979c.055-1.758.201-3.048 2.33-3.048 1.186.012 1.855.602 1.947 1.776.024.165.042.353.03.523h-1.314c-.055-.441-.012-1.271-.663-1.271-1.053 0-.961 1.208-.961 1.746v1.892c0 .571.048 1.49.961 1.49.73 0 .651-1.125.675-1.57h1.345zm1.004-1.539c.054-1.758.2-3.048 2.33-3.048 2.136 0 2.275 1.29 2.33 3.048v.979c0 1.834-.14 3.176-2.33 3.176s-2.33-1.341-2.33-3.176v-.979zm1.369 1.621c0 .568.042 1.487.961 1.487.949 0 .961-.937.961-1.6v-1.752c0-.548.03-1.773-.961-1.773-1.046 0-.961 1.208-.961 1.743v1.895zm7.708-4.502h1.338V123h-1.393l-1.046-2.446c-.347-.815-.633-1.643-.949-2.729h-.019c.049.575.104 1.263.146 1.968.037.682.067 1.362.067 1.913V123h-1.333v-6.865h1.381l1.035 2.503c.34.791.632 1.606.955 2.726h.019c-.049-.621-.097-1.296-.134-1.953s-.067-1.314-.067-1.929v-1.347zm2.147 0h4.448v1.01h-1.552V123h-1.338v-5.855h-1.558zM147.98 123v-6.865h3.76v1.01h-2.422v1.728h2.233v1.01h-2.233v2.114h2.422V123zm8-6.865h1.333V123h-1.393l-1.034-2.446c-.353-.815-.639-1.643-.955-2.729h-.019c.049.575.104 1.263.146 1.968.042.682.067 1.362.067 1.913V123h-1.338v-6.865h1.381l1.041 2.503c.347.791.626 1.606.955 2.726h.019a82.754 82.754 0 01-.134-1.953 34.959 34.959 0 01-.067-1.929v-1.347zm2.148 0h4.447v1.01h-1.557V123h-1.332v-5.855h-1.558zm8.949 3.903V123h-1.338v-6.868h2.525c1.156 0 2.026.383 2.026 1.648 0 .751-.195 1.533-1.089 1.655v.024c.791.1 1.028.578 1.028 1.247 0 .277-.037 1.958.285 2.166V123h-1.472c-.158-.438-.127-1.29-.14-1.733-.006-.426 0-.998-.456-1.132-.365-.104-.749-.098-1.132-.098h-.237zm0-1.004h1.047c.438-.024.778-.292.778-.992 0-.766-.334-.894-.833-.9h-.992v1.892zm3.942 3.966l1.709-6.862h1.794l1.619 6.862h-1.423l-.353-1.737h-1.563l-.353 1.737h-1.43zm1.989-2.743h1.144l-.359-1.953c-.066-.322-.091-.626-.134-.949a5.173 5.173 0 00-.048-.462h-.012c-.03.146-.037.298-.049.462-.049.322-.079.626-.14.949l-.402 1.953zm3.389-4.122h4.448v1.01h-1.552V123h-1.338v-5.855h-1.558zm5.214 6.865v-6.865h3.753v1.01h-2.415v1.728h2.221v1.01h-2.221v2.114h2.415V123zm4.842 0v-6.865h2.781c.322 0 .973.131 1.381.77.304.48.383 1.247.383 2.372 0 1.357 0 2.927-1.089 3.553-.292.152-.657.17-.992.17h-2.464zm1.911-1.006c1.192 0 1.271-.605 1.271-2.589 0-1.63-.177-2.263-.973-2.263h-.876v4.852h.578zm6.229 1.006v-6.868h2.148c.578 0 1.144.03 1.515.505.304.377.359.767.359 1.229 0 .596-.14 1.187-.857 1.442v.018c.742.104 1.034.706 1.034 1.6 0 .28-.018.56-.097.837-.286.873-.803 1.238-1.746 1.238h-2.356zm1.613-1.009c.28 0 .566.027.81-.067.359-.161.401-.614.401-.955 0-.736-.151-1.059-.973-1.059h-.517v2.081h.279zm-.037-3.082c.329 0 .742.018.956-.247.122-.176.14-.404.14-.742 0-.505-.11-.76-.725-.772h-.614v1.761h.243zm5.427-.976c.14.341.256.694.31 1.056h.024c.098-.536.28-.916.438-1.293l.632-1.56h1.46l-1.886 3.945V123h-1.332v-2.92l-1.855-3.945h1.454l.755 1.798zm-75.164 17.241v-10.148h14.406v2.376h-8.621v1.451h7.295v2.361h-7.295v1.594h8.955v2.366zm29.226-7.197c-.091-.341-.414-.566-.833-.688-.414-.128-.925-.188-1.497-.188-1.271 0-1.844.219-1.844.587 0 1.512 10.16.575 10.16 4.256 0 2.354-3.413 3.498-8.268 3.498-4.66 0-7.702-1.558-7.824-3.389h5.542c.122.365.468.633.961.796.462.171 1.071.256 1.643.256 1.448 0 2.409-.268 2.409-.746 0-1.536-10.166-.483-10.166-4.353 0-2.16 3.243-3.243 7.659-3.243 4.904 0 7.137 1.442 7.557 3.212h-5.499zm16.548 3.666v3.532h-5.792v-10.148h8.341c5.883 0 7.824.925 7.824 2.896 0 1.174-.906 2.147-2.963 2.482 1.861.396 2.993.639 2.993 2.689 0 1.32-.079 1.773.608 1.773v.308h-5.864c-.146-.225-.292-.876-.292-1.777 0-1.326-.396-1.755-3.09-1.755h-1.765zm0-2.224h2.275c1.794 0 2.75-.265 2.75-.967 0-.709-.974-1.053-2.331-1.053h-2.695v2.02zm16.024 5.755v-10.148h8.438c3.979 0 7.143.544 7.143 2.555 0 1.046-1.181 1.807-2.306 2.208 1.91.28 2.938 1.232 2.938 2.324 0 2.27-3.011 3.061-7.604 3.061h-8.609zm5.786-4.234v1.868h2.524c1.43 0 2.507-.17 2.507-.931 0-.888-1.345-.937-3.194-.937h-1.837zm0-3.538v1.692h2.409c1.15 0 1.99-.302 1.99-.889 0-.791-1.138-.803-2.354-.803h-2.045z" />
    <path
        d="M128.9 43c0-2.2 2-4.1 4.5-4.1s4.4 1.8 4.4 4.1-2 4.1-4.4 4.1c-2.5 0-4.5-1.8-4.5-4.1m8.1 0c0-1.8-1.6-3.3-3.6-3.3s-3.7 1.5-3.7 3.3c0 1.9 1.6 3.4 3.7 3.4 2 0 3.6-1.5 3.6-3.4m-4.6.3v2.1h-.8v-4.8h1.7c1 0 1.9.2 1.9 1.3 0 .5-.4 1-1 1.1.7.1.8.4.9.9.1.5.1.9.3 1.4h-1c-.1-.3-.1-.6-.2-.9 0-.4 0-.8-.3-1-.2-.2-.5-.2-.8-.2h-.7m.9-.8c.8 0 .9-.3.9-.7 0-.4-.2-.6-.8-.6h-1v1.2h.9z" />
    <path fill="#fff"
        d="M200.428 30.057v-2.689h3.93v-2.489h-3.93v-2.302h4.058v-2.51h-7.204v12.472h7.228v-2.482zm-8.11-3.012h-.048l-2.434-6.978h-3.231v12.475h2.981l-.285-6.945.036-.033 2.44 6.978h3.218V20.067h-2.981zm-11.82-7.197c-2.75 0-4.283 1.326-4.283 3.711v5.086c0 2.811 1.101 4.271 4.283 4.271 3.188 0 4.234-1.46 4.234-4.271V23.56c-.001-2.386-1.491-3.712-4.234-3.712m1.083 9.041c0 .721-.073 1.776-1.083 1.776-1.016 0-1.149-1.056-1.149-1.776v-5.116c0-.773.133-1.683 1.131-1.683 1.028 0 1.102.91 1.102 1.683v5.116zm-11.462-4.737h-.043l-1.576-4.085h-3.175l3.163 7.234v5.238h3.139v-5.238l3.237-7.234h-3.139zm-5.938 3.861c-.048-.864-.675-1.43-1.545-1.603v-.052c1.32-.542 1.661-1.506 1.661-2.835 0-2.47-1.295-3.456-3.857-3.456h-4.6v12.477h3.146v-4.927h1.047c.73.064.967.554 1.07 1.326.079.767.006 1.795.067 2.893.012.24.085.478.176.708h3.432v-.164a.871.871 0 01-.304-.417c-.178-.805-.202-2.953-.293-3.95m-4.124-2.632h-1.071v-3.057c1.54-.024 2.196.024 2.196 1.502 0 .782-.213 1.555-1.125 1.555m-10.301 1.987h3.937v-2.489h-3.937v-2.302h4.071V20.07h-7.209v12.472h7.409v-2.485h-4.271zm-9.454 1.453h-.036l-1.606-8.754h-3.145l2.907 12.477h3.7l2.938-12.477h-3.145zm-10.336-1.453h3.967v-2.489h-3.967v-2.302h4.095V20.07h-7.252v12.472h7.464v-2.485h-4.307z" />
    <path
        d="M135.4 51l47.7-12.1 4.4 15.4-28.1 7.1 1.8 6.3 28.1-7.1 4.4 15.4-28.1 7.1 1.9 6.7 28.1-7.1 4.4 15.4-47.7 12.1z" />
</svg>