<svg xmlns="http://www.w3.org/2000/svg"  viewBox="0 0 48 48" width="48px" height="48px"><circle cx="24" cy="24" r="20" fill="#e5ff00"/><circle cx="24" cy="24" r="16"/><path fill="#ffffff" d="M -10.7 40.7 h 4.4 v -8.5 c 0 -0.4 0 -0.8 0.2 -1.1 c 0.3 -0.7 1 -1.6 2.1 -1.6 c 1.4 0 2.1 1.3 2.1 3.1 v 8.2 h 4.4 v -8.5 c 0 -0.4 0.1 -0.8 0.2 -1.2 c 0.3 -0.9 1 -1.6 2.1 -1.6 c 1.5 0 2.2 1.2 2.2 3.3 v 8 h 4.4 v -8.6 c 0 -4.4 -2.1 -6.3 -4.9 -6.3 c -1.1 0 -2 0.2 -2.8 0.7 c -0.7 0.4 -1.3 1 -1.9 1.8 H 1.7 c -0.6 -1.5 -2.1 -2.5 -4 -2.5 c -2.5 0 -3.8 1.4 -4.4 2.3 h -0.1 l -0.2 -2 h -3.8 c 0.1 1.3 0.1 2.8 0.1 4.7 L -10.7 40.7 L -10.7 40.7 z" transform="rotate(-45)"/></svg>