<svg id="euoUhGLx7gH1" xmlns="http://www.w3.org/2000/svg" xmlns:xlink="http://www.w3.org/1999/xlink" viewBox="0 0 10 10"
    shape-rendering="geometricPrecision" text-rendering="geometricPrecision">
    <path d="M419.5,13.4h-90.4v128.5h91.1v-128.5h-.7Z" transform="matrix(.07 0 0 0.07-21.228912-.433756)" fill="#fff" />
    <path d="M331.4,15.8h86.4v123.7h-86.4v-123.7Z" transform="matrix(.07 0 0 0.07-21.228912-.433756)" />
    <path d="M336,36.2h77.2v76.8h-77.2v-76.8Z" transform="matrix(.07 0 0 0.07-21.228912-.433756)" fill="#fff" />
    <path d="M420.5,12.5h-92.4v130.4h93.1v-130.4h-.7Zm-.7,129.1h-90.4v-127.9h90.4v127.8.1Z"
        transform="matrix(.07 0 0 0.07-21.228912-.433756)" />
    <path
        d="M339.919,120.555c-.013.134-.021.268-.032.398-.068,1.25-.501,2.214-1.986,2.214-2.196,0-2.333-1.338-2.333-3.172v-.979c.054-1.758.199-3.048,2.333-3.048c1.187.012,1.855.602,1.947,1.773.021.167.039.356.026.523h-1.311c-.056-.438-.012-1.266-.663-1.266-1.052,0-.966,1.205-.966,1.746v1.892c0,.572.05,1.487.966,1.487.727,0,.648-1.128.673-1.57h1.346v.002Zm1.002-1.539c.057-1.758.199-3.048,2.333-3.048s2.274,1.29,2.331,3.048v.979c0,1.834-.143,3.172-2.331,3.172-2.189,0-2.333-1.338-2.333-3.172v-.979Zm1.368,1.621c0,.572.047,1.487.965,1.487.949,0,.958-.937.958-1.6v-1.752c0-.548.032-1.773-.958-1.773-1.046,0-.965,1.205-.965,1.746v1.892Zm7.709-4.502h1.34v6.865h-1.396l-1.046-2.443c-.370363-.890544-.686932-1.802517-.948-2.731h-.018c.057459.655318.10613,1.311377.146,1.968.037.682.064,1.362.064,1.913v1.293h-1.332v-6.865h1.383l1.034,2.503c.34.791.632,1.606.956,2.722h.016c-.051509-.649512-.096178-1.299548-.134-1.95-.038492-.643324-.060166-1.287544-.065-1.932v-1.343Zm2.148,0h4.447v1.01h-1.55v5.855h-1.34v-5.855h-1.557v-1.01ZM357.353,123v-6.865h3.759v1.01h-2.421v1.731h2.235v1.007h-2.235v2.111h2.421v1.006h-3.759Zm8.001-6.865h1.332v6.865h-1.395l-1.034-2.443c-.352-.818-.639-1.648-.954-2.731h-.019c.051.575.104,1.263.146,1.968.042.682.066,1.362.066,1.913v1.293h-1.336v-6.865h1.379l1.04,2.503c.346.791.628,1.606.957,2.722h.015c-.046-.617-.097-1.293-.13-1.95-.040958-.643226-.063633-1.287486-.068-1.932v-1.343h.001Zm2.146,0h4.448v1.01h-1.557v5.855h-1.333v-5.855h-1.558v-1.01Zm8.95,3.906v2.959h-1.34v-6.865h2.526c1.155,0,2.024.38,2.024,1.643c0,.754-.194,1.536-1.086,1.658v.024c.791.1,1.026.581,1.026,1.247c0,.277-.037,1.958.287,2.166v.127h-1.474c-.158-.438-.128-1.287-.141-1.737-.006-.423,0-.995-.457-1.128-.364-.104-.748-.095-1.131-.095h-.234v.001Zm0-1.007h1.046c.44-.024.778-.289.778-.992c0-.766-.335-.894-.834-.897h-.99v1.889ZM380.391,123l1.711-6.865h1.794L385.515,123h-1.424l-.352-1.737h-1.563L381.82,123h-1.429Zm1.991-2.743h1.142l-.356-1.953c-.065-.322-.09-.626-.135-.949-.009047-.15473-.025734-.308918-.05-.462h-.013c-.029.143-.035.298-.046.462-.051.322-.081.626-.141.949l-.401,1.953Zm3.389-4.122h4.448v1.01h-1.552v5.855h-1.339v-5.855h-1.557v-1.01ZM390.985,123v-6.865h3.754v1.01h-2.415v1.731h2.221v1.007h-2.221v2.111h2.415v1.006h-3.754Zm4.843,0v-6.865h2.777c.325,0,.977.131,1.384.77.302.48.383,1.244.383,2.372c0,1.36,0,2.927-1.088,3.55-.296.155-.658.173-.992.173h-2.464Zm1.91-1.006c1.192,0,1.271-.608,1.271-2.589c0-1.627-.176-2.26-.973-2.26h-.88v4.849h.582ZM403.965,123v-6.865h2.15c.575,0,1.145.027,1.515.502.305.374.356.767.356,1.229c0,.6-.141,1.187-.854,1.442v.018c.742.104,1.034.706,1.034,1.6c0,.283-.019.56-.098.837-.285.875-.803,1.238-1.746,1.238h-2.357v-.001Zm1.615-1.006c.279,0,.563.024.81-.07.358-.161.398-.611.398-.955c0-.736-.149-1.056-.97-1.056h-.518v2.081h.28Zm-.036-3.085c.325,0,.739.018.955-.247.121-.173.14-.404.14-.742c0-.505-.112-.76-.727-.775h-.611v1.764h.243Zm5.427-.976c.14.344.256.694.311,1.056h.021c.1-.536.278-.916.44-1.293l.629-1.56h1.464l-1.889,3.945v2.919h-1.33v-2.92l-1.854-3.945h1.453l.755,1.798Zm-75.167,17.241v-10.148h14.405v2.376h-8.618v1.448h7.294v2.367h-7.294v1.591h8.955v2.366h-14.742Zm29.226-7.197c-.089-.341-.413-.563-.834-.688-.411-.128-.926-.188-1.495-.188-1.271,0-1.844.219-1.844.587c0,1.515,10.159.575,10.159,4.259c0,2.351-3.412,3.495-8.266,3.495-4.663,0-7.703-1.561-7.825-3.392h5.543c.121.365.467.632.962.799.461.174,1.068.259,1.641.259c1.448,0,2.408-.271,2.408-.749c0-1.536-10.165-.483-10.165-4.353c0-2.16,3.243-3.243,7.66-3.243c4.903,0,7.136,1.442,7.558,3.212h-5.502v.002Zm16.548,3.666v3.532h-5.79v-10.148h8.338c5.886,0,7.826.925,7.826,2.896c0,1.171-.905,2.147-2.962,2.482c1.861.396,2.993.642,2.993,2.686c0,1.323-.083,1.776.608,1.776v.308h-5.868c-.146-.225-.289-.876-.289-1.774c0-1.329-.396-1.758-3.093-1.758h-1.763Zm0-2.224h2.274c1.798,0,2.75-.265,2.75-.964c0-.712-.972-1.053-2.331-1.053h-2.693v2.017Zm16.026,5.755v-10.148h8.438c3.979,0,7.142.544,7.142,2.555c0,1.046-1.18,1.807-2.309,2.205c1.914.283,2.941,1.235,2.941,2.327c0,2.27-3.011,3.061-7.607,3.061h-8.605Zm5.786-4.237v1.871h2.525c1.429,0,2.503-.174,2.503-.931c0-.885-1.342-.939-3.19-.939h-1.838v-.001Zm0-3.535v1.692h2.41c1.149,0,1.989-.302,1.989-.889c0-.791-1.139-.803-2.358-.803h-2.041Z"
        transform="matrix(.07 0 0 0.07-21.228912-.433756)" fill="#fff" />
    <path
        d="M338.3,43c0-2.2,2-4.1,4.5-4.1s4.4,1.8,4.4,4.1-2,4.1-4.4,4.1c-2.5,0-4.5-1.8-4.5-4.1m8.1,0c0-1.8-1.6-3.3-3.6-3.3s-3.7,1.5-3.7,3.3c0,1.9,1.6,3.4,3.7,3.4c2,0,3.6-1.5,3.6-3.4m-4.6.3v2.1h-.8v-4.8h1.7c1,0,1.9.2,1.9,1.3c0,.5-.4,1-1.1,1.1.7.1.8.4.9.9s.1.9.3,1.4h-1c-.1-.3-.1-.6-.2-.9-.1-.4-.1-.8-.3-1s-.5-.2-.8-.2h-.7m.9-.8c.8,0,.9-.3.9-.7s-.2-.5-.8-.5h-1v1.2h.9Zm-2.8,11.2l60-14.9l4.6,16-19.3,4.8L398,104.3l-21.5,5.3-12.9-44.8-19.3,4.8-4.5-16Z"
        transform="matrix(.07 0 0 0.07-21.228912-.433756)" />
    <path
        d="M395.8,19.6h5.5l6.3,6.8-.2-2.8v-3.9h5.6v12.4h-5.5l-6.3-6.7.2,2.8v3.9h-5.6v-12.5Zm-19.7,0h14.5v2.9h-8.7v1.8h7.3v2.9h-7.3v1.9h9v2.9h-14.8v-12.4Zm-20.3,0h14.5v2.9h-8.7v1.8h7.3v2.9h-7.3v1.9h9v2.9h-14.8v-12.4Zm-21.2,0h16.3v3.3h-5.2v9.1h-5.8v-9.1h-5.2l-.1-3.3Z"
        transform="matrix(.07 0 0 0.07-21.228912-.433756)" fill="#fff" />
</svg>