<svg xmlns="http://www.w3.org/2000/svg" viewBox="0 1 22" >
    <path fill="#ffffff" d="M 419.5 13.4 h -90.4 v 128.5 h 91.1 V 13.4 z" />
    <path d="M 331.4 15.8 h 86.4 v 123.7 h -86.4 z" />
    <path fill="#ffffff" d="M 336 36.2 h 77.2 V 113 H 336 z" />
    <path d="M 420.5 12.5 h -92.4 v 130.4 h 93.1 V 12.5 h -0.7 z m -0.7 129.1 h -90.4 V 13.7 h 90.4 v 127.8 z" />
    <path fill="#ffffff"
        d="M339.919 120.555c-.013.134-.021.268-.032.398-.068 1.25-.501 2.214-1.986 2.214-2.196 0-2.333-1.338-2.333-3.172v-.979c.054-1.758.199-3.048 2.333-3.048 1.187.012 1.855.602 1.947 1.773.021.167.039.356.026.523h-1.311c-.056-.438-.012-1.266-.663-1.266-1.052 0-.966 1.205-.966 1.746v1.892c0 .572.05 1.487.966 1.487.727 0 .648-1.128.673-1.57h1.346zm1.002-1.539c.057-1.758.199-3.048 2.333-3.048s2.274 1.29 2.331 3.048v.979c0 1.834-.143 3.172-2.331 3.172-2.189 0-2.333-1.338-2.333-3.172v-.979zm1.368 1.621c0 .572.047 1.487.965 1.487.949 0 .958-.937.958-1.6v-1.752c0-.548.032-1.773-.958-1.773-1.046 0-.965 1.205-.965 1.746v1.892zm7.709-4.502h1.34V123h-1.396l-1.046-2.443a24.1 24.1 0 01-.948-2.731h-.018a73.6 73.6 0 01.146 1.968c.037.682.064 1.362.064 1.913V123h-1.332v-6.865h1.383l1.034 2.503c.34.791.632 1.606.956 2.722h.016a92.826 92.826 0 01-.134-1.95 36.993 36.993 0 01-.065-1.932v-1.343zm2.148 0h4.447v1.01h-1.55V123h-1.34v-5.855h-1.557zm5.207 6.865v-6.865h3.759v1.01h-2.421v1.731h2.235v1.007h-2.235v2.111h2.421V123zm8.001-6.865h1.332V123h-1.395l-1.034-2.443c-.352-.818-.639-1.648-.954-2.731h-.019c.051.575.104 1.263.146 1.968.042.682.066 1.362.066 1.913V123h-1.336v-6.865h1.379l1.04 2.503c.346.791.628 1.606.957 2.722h.015c-.046-.617-.097-1.293-.13-1.95a34.031 34.031 0 01-.068-1.932v-1.343zm2.146 0h4.448v1.01h-1.557V123h-1.333v-5.855H367.5zm8.95 3.906V123h-1.34v-6.865h2.526c1.155 0 2.024.38 2.024 1.643 0 .754-.194 1.536-1.086 1.658v.024c.791.1 1.026.581 1.026 1.247 0 .277-.037 1.958.287 2.166V123h-1.474c-.158-.438-.128-1.287-.141-1.737-.006-.423 0-.995-.457-1.128-.364-.104-.748-.095-1.131-.095h-.234zm0-1.007h1.046c.44-.024.778-.289.778-.992 0-.766-.335-.894-.834-.897h-.99v1.889zm3.941 3.966l1.711-6.865h1.794l1.619 6.865h-1.424l-.352-1.737h-1.563L381.82 123h-1.429zm1.991-2.743h1.142l-.356-1.953c-.065-.322-.09-.626-.135-.949a4.705 4.705 0 00-.05-.462h-.013c-.029.143-.035.298-.046.462-.051.322-.081.626-.141.949l-.401 1.953zm3.389-4.122h4.448v1.01h-1.552V123h-1.339v-5.855h-1.557zm5.214 6.865v-6.865h3.754v1.01h-2.415v1.731h2.221v1.007h-2.221v2.111h2.415V123zm4.843 0v-6.865h2.777c.325 0 .977.131 1.384.77.302.48.383 1.244.383 2.372 0 1.36 0 2.927-1.088 3.55-.296.155-.658.173-.992.173h-2.464zm1.91-1.006c1.192 0 1.271-.608 1.271-2.589 0-1.627-.176-2.26-.973-2.26h-.88v4.849h.582zm6.227 1.006v-6.865h2.15c.575 0 1.145.027 1.515.502.305.374.356.767.356 1.229 0 .6-.141 1.187-.854 1.442v.018c.742.104 1.034.706 1.034 1.6 0 .283-.019.56-.098.837-.285.875-.803 1.238-1.746 1.238h-2.357zm1.615-1.006c.279 0 .563.024.81-.07.358-.161.398-.611.398-.955 0-.736-.149-1.056-.97-1.056h-.518v2.081h.28zm-.036-3.085c.325 0 .739.018.955-.247.121-.173.14-.404.14-.742 0-.505-.112-.76-.727-.775h-.611v1.764h.243zm5.427-.976c.14.344.256.694.311 1.056h.021c.1-.536.278-.916.44-1.293l.629-1.56h1.464l-1.889 3.945V123h-1.33v-2.92l-1.854-3.945h1.453l.755 1.798zm-75.167 17.241v-10.148h14.405v2.376h-8.618v1.448h7.294v2.367h-7.294v1.591h8.955v2.366zm29.226-7.197c-.089-.341-.413-.563-.834-.688-.411-.128-.926-.188-1.495-.188-1.271 0-1.844.219-1.844.587 0 1.515 10.159.575 10.159 4.259 0 2.351-3.412 3.495-8.266 3.495-4.663 0-7.703-1.561-7.825-3.392h5.543c.121.365.467.632.962.799.461.174 1.068.259 1.641.259 1.448 0 2.408-.271 2.408-.749 0-1.536-10.165-.483-10.165-4.353 0-2.16 3.243-3.243 7.66-3.243 4.903 0 7.136 1.442 7.558 3.212h-5.502zm16.548 3.666v3.532h-5.79v-10.148h8.338c5.886 0 7.826.925 7.826 2.896 0 1.171-.905 2.147-2.962 2.482 1.861.396 2.993.642 2.993 2.686 0 1.323-.083 1.776.608 1.776v.308h-5.868c-.146-.225-.289-.876-.289-1.774 0-1.329-.396-1.758-3.093-1.758h-1.763zm0-2.224h2.274c1.798 0 2.75-.265 2.75-.964 0-.712-.972-1.053-2.331-1.053h-2.693v2.017zm16.026 5.755v-10.148h8.438c3.979 0 7.142.544 7.142 2.555 0 1.046-1.18 1.807-2.309 2.205 1.914.283 2.941 1.235 2.941 2.327 0 2.27-3.011 3.061-7.607 3.061h-8.605zm5.786-4.237v1.871h2.525c1.429 0 2.503-.174 2.503-.931 0-.885-1.342-.939-3.19-.939h-1.838zm0-3.535v1.692h2.41c1.149 0 1.989-.302 1.989-.889 0-.791-1.139-.803-2.358-.803h-2.041z" />
    <path
        d="M 338.3 43 c 0 -2.2 2 -4.1 4.5 -4.1 s 4.4 1.8 4.4 4.1 s -2 4.1 -4.4 4.1 c -2.5 0 -4.5 -1.8 -4.5 -4.1 m 8.1 0 c 0 -1.8 -1.6 -3.3 -3.6 -3.3 s -3.7 1.5 -3.7 3.3 c 0 1.9 1.6 3.4 3.7 3.4 c 2 0 3.6 -1.5 3.6 -3.4 m -4.6 0.3 v 2.1 h -0.8 v -4.8 h 1.7 c 1 0 1.9 0.2 1.9 1.3 c 0 0.5 -0.4 1 -1.1 1.1 c 0.7 0.1 0.8 0.4 0.9 0.9 c 0.1 0.5 0.1 0.9 0.3 1.4 h -1 c -0.1 -0.3 -0.1 -0.6 -0.2 -0.9 c -0.1 -0.4 -0.1 -0.8 -0.3 -1 c -0.2 -0.2 -0.5 -0.2 -0.8 -0.2 h -0.7 m 0.9 -0.8 c 0.8 0 0.9 -0.3 0.9 -0.7 c 0 -0.4 -0.2 -0.5 -0.8 -0.5 h -1 v 1.2 h 0.9 z m -2.8 11.2 l 60 -14.9 l 4.6 16 l -19.3 4.8 l 12.9 44.8 l -21.5 5.3 l -12.9 -44.8 l -19.3 4.8 z" />
    <path fill="#ffffff"
        d="M 395.8 19.6 h 5.5 l 6.3 6.8 l -0.2 -2.8 v -3.9 h 5.6 v 12.4 h -5.5 l -6.3 -6.7 l 0.2 2.8 v 3.9 h -5.6 z m -19.7 0 h 14.5 v 2.9 h -8.7 v 1.8 h 7.3 v 2.9 h -7.3 v 1.9 h 9 V 32 h -14.8 z m -20.3 0 h 14.5 v 2.9 h -8.7 v 1.8 h 7.3 v 2.9 h -7.3 v 1.9 h 9 V 32 h -14.8 z m -21.2 0 h 16.3 v 3.3 h -5.2 V 32 h -5.8 v -9.1 h -5.2 z" />
</svg>